<svg id="Vrstva_1" data-name="Vrstva 1" xmlns="http://www.w3.org/2000/svg" xmlns:xlink="http://www.w3.org/1999/xlink" viewBox="0 0 260.29 84.09"><defs><style>.cls-1,.cls-2,.cls-4{fill:none;}.cls-2,.cls-4{stroke:#1d1d1b;stroke-miterlimit:10;}.cls-2{stroke-width:0.44px;}.cls-3{clip-path:url(#clip-path);}.cls-4{stroke-width:0.35px;}.cls-5{fill:#1d1d1b;}</style><clipPath id="clip-path" transform="translate(-0.04)"><rect class="cls-1" y="0.05" width="96.59" height="84.09"/></clipPath></defs><title>tamarysek_logo_new_1c (1)</title><polyline class="cls-2" points="48.29 26.87 48.26 72.4 48.26 72.47 48.26 72.61"/><g class="cls-3"><path class="cls-2" d="M66.62,46.35h0l0-.06A48.11,48.11,0,0,0,48.33,26.63h0l-.06,0A48,48,0,0,0,30,46.33l-.09.19" transform="translate(-0.04)"/><path class="cls-2" d="M27.63,25.83A48,48,0,0,1,48.21.49l.12-.07.05,0A48,48,0,0,1,69,25.73" transform="translate(-0.04)"/><path class="cls-2" d="M66.62,46.35h0s0-.05,0-.08h0c-.16-1.6-.24-3.23-.24-4.87A47.76,47.76,0,0,1,89.69.3a47.63,47.63,0,0,1,6.64,24.34,48.41,48.41,0,0,1-.55,7.27A47.86,47.86,0,0,1,73,65.72c-.45.28-.91.54-1.38.8a47.53,47.53,0,0,1-16.91,5.55l-1,.12a48.29,48.29,0,0,1-5.27.28h-.4a48.29,48.29,0,0,1-5.27-.28l-.94-.12A47.84,47.84,0,0,1,.81,31.91a47.13,47.13,0,0,1-.55-7.27A47.63,47.63,0,0,1,6.9.3,48,48,0,0,1,27.63,25.83h0a47.69,47.69,0,0,1,2.59,15.56c0,1.64-.08,3.27-.24,4.87h0" transform="translate(-0.04)"/><path class="cls-4" d="M.81,31.91A47.69,47.69,0,0,1,30,46.26h0l.06.07c6.67,6.94,12.78,19.57,12.78,37.58H53.76c0-33,20.48-49.64,42-52" transform="translate(-0.04)"/></g><polyline class="cls-4" points="48.25 83.91 48.26 72.61 48.26 72.47"/><path class="cls-5" d="M124.38,42.52v1.53h-6.56V61.33H116V44.05H109.5V42.52Z" transform="translate(-0.04)"/><path class="cls-5" d="M131.89,42.52l7.38,18.81h-1.93l-2.29-5.85h-8.56l-2.27,5.85h-1.89l7.56-18.81ZM134.45,54l-3.64-9.65L127,54Z" transform="translate(-0.04)"/><path class="cls-5" d="M143.56,42.52,149.81,59l6.48-16.5h2.63V61.33h-1.79V45.08h0l-6.43,16.25H149l-6.19-16.25h-.05V61.33h-1.79V42.52Z" transform="translate(-0.04)"/><path class="cls-5" d="M170.12,42.52l7.37,18.81h-1.92l-2.29-5.85h-8.56l-2.27,5.85h-1.89l7.56-18.81ZM172.67,54,169,44.31,165.27,54Z" transform="translate(-0.04)"/><path class="cls-5" d="M187.82,42.52a8.24,8.24,0,0,1,2.2.29,5.5,5.5,0,0,1,1.82.88,4.34,4.34,0,0,1,1.24,1.53,4.92,4.92,0,0,1,.46,2.2,5.31,5.31,0,0,1-.92,3.11,4.24,4.24,0,0,1-2.74,1.69v.05a4.24,4.24,0,0,1,1.53.49,3,3,0,0,1,1,.91,3.75,3.75,0,0,1,.56,1.27,9.43,9.43,0,0,1,.22,1.57c0,.32,0,.71.05,1.16s.06.92.11,1.38a8.59,8.59,0,0,0,.25,1.32,2.68,2.68,0,0,0,.46,1h-2a2.37,2.37,0,0,1-.26-.64,6.85,6.85,0,0,1-.13-.79c0-.27-.05-.54-.06-.81s0-.49-.06-.68c0-.67-.09-1.33-.17-2a5.14,5.14,0,0,0-.5-1.77,3.16,3.16,0,0,0-1.1-1.25,3.45,3.45,0,0,0-2-.42H181v8.35h-1.79V42.52Zm-.13,8.93a4.62,4.62,0,0,0,1.55-.25,3.83,3.83,0,0,0,1.3-.72,3.71,3.71,0,0,0,.88-1.15,3.42,3.42,0,0,0,.33-1.54,3.69,3.69,0,0,0-1-2.74,4.16,4.16,0,0,0-3.06-1H181v7.4Z" transform="translate(-0.04)"/><path class="cls-5" d="M194.33,42.52h2.11l6.19,9.54,6.17-9.54h2.13L203.5,53.59v7.74h-1.79V53.59Z" transform="translate(-0.04)"/><path class="cls-5" d="M213.85,57.57a4,4,0,0,0,1.31,1.55,5.43,5.43,0,0,0,2,.83,11,11,0,0,0,2.42.25,6.92,6.92,0,0,0,1.61-.21,5.49,5.49,0,0,0,1.62-.67A4.18,4.18,0,0,0,224,58.13a3,3,0,0,0,.5-1.75,2.54,2.54,0,0,0-.35-1.37,3.19,3.19,0,0,0-.93-1,5.22,5.22,0,0,0-1.24-.65,12.86,12.86,0,0,0-1.35-.41l-4.19-1a12.84,12.84,0,0,1-1.59-.52,4.41,4.41,0,0,1-1.36-.85,3.82,3.82,0,0,1-.93-1.29,4.36,4.36,0,0,1-.36-1.87,6.14,6.14,0,0,1,.26-1.6,4.5,4.5,0,0,1,1-1.74,5.73,5.73,0,0,1,2-1.39,8.09,8.09,0,0,1,3.24-.56,9.29,9.29,0,0,1,2.66.37,6.6,6.6,0,0,1,2.22,1.1,5.59,5.59,0,0,1,1.51,1.83,5.45,5.45,0,0,1,.57,2.55h-1.8a4.33,4.33,0,0,0-.48-1.89,4.22,4.22,0,0,0-1.14-1.34,5,5,0,0,0-1.6-.82,6.73,6.73,0,0,0-1.91-.27,8,8,0,0,0-1.78.19,4.42,4.42,0,0,0-1.5.64,3.18,3.18,0,0,0-1,1.14,3.54,3.54,0,0,0-.4,1.77,2.66,2.66,0,0,0,.23,1.14,2.3,2.3,0,0,0,.61.83,3.38,3.38,0,0,0,.91.56,7.07,7.07,0,0,0,1.1.34l4.58,1.13a12.57,12.57,0,0,1,1.88.65,6.35,6.35,0,0,1,1.56.94,3.91,3.91,0,0,1,1.05,1.39,4.53,4.53,0,0,1,.38,2,7.94,7.94,0,0,1-.06.85,4.46,4.46,0,0,1-.32,1.12,5.46,5.46,0,0,1-.71,1.2A4.72,4.72,0,0,1,224,60.61a7.5,7.5,0,0,1-2,.79,13.14,13.14,0,0,1-5.93-.08,6.55,6.55,0,0,1-2.43-1.17,5.3,5.3,0,0,1-1.54-2,6.86,6.86,0,0,1-.46-3h1.8A5.37,5.37,0,0,0,213.85,57.57Zm2.93-20.26L219,40l2.32-2.68h1.53l-3,3.71h-1.82l-3-3.71Z" transform="translate(-0.04)"/><path class="cls-5" d="M242.15,42.52v1.53H231v6.8h10.49v1.53H231v7.43h11.33v1.52H229.16V42.52Z" transform="translate(-0.04)"/><path class="cls-5" d="M246.57,42.52V52.64l10.94-10.12h2.42l-8.4,7.77,8.8,11H258l-7.83-9.8-3.61,3.35v6.45h-1.79V42.52Z" transform="translate(-0.04)"/><path class="cls-5" d="M110.77,34.69h-.45V18.76h.45v11l7.91-6.58h.65l-5.26,4.37,5.64,7.1h-.6l-5.38-6.78-3,2.45Z" transform="translate(-0.04)"/><path class="cls-5" d="M120,26.69a6.08,6.08,0,0,1,1-1.91,5,5,0,0,1,1.62-1.32,5.18,5.18,0,0,1,4.44,0,5,5,0,0,1,1.62,1.32,5.88,5.88,0,0,1,1,1.91,7.94,7.94,0,0,1,0,4.53,5.73,5.73,0,0,1-1,1.9,4.72,4.72,0,0,1-3.85,1.81,4.76,4.76,0,0,1-2.21-.49,4.84,4.84,0,0,1-1.62-1.32,5.92,5.92,0,0,1-1-1.9,7.94,7.94,0,0,1,0-4.53Zm.41,4.36a5.5,5.5,0,0,0,.91,1.77,4.44,4.44,0,0,0,7,0,5.3,5.3,0,0,0,.91-1.77,7.4,7.4,0,0,0,0-4.17,5.3,5.3,0,0,0-.91-1.77,4.56,4.56,0,0,0-1.48-1.24,4.27,4.27,0,0,0-2-.47,4.32,4.32,0,0,0-2,.47,4.56,4.56,0,0,0-1.48,1.24,5.5,5.5,0,0,0-.91,1.77,7.4,7.4,0,0,0,0,4.17Z" transform="translate(-0.04)"/><path class="cls-5" d="M139,25.14a2.58,2.58,0,0,0-.76-1,3.2,3.2,0,0,0-1.17-.57,6,6,0,0,0-1.51-.18,4.45,4.45,0,0,0-1.89.33,2.84,2.84,0,0,0-1,.73,2.07,2.07,0,0,0-.42.82,3,3,0,0,0-.09.55,2.15,2.15,0,0,0,.34,1.31,2.21,2.21,0,0,0,.93.7,11,11,0,0,0,1.3.42l1.64.43,1.33.37a4.36,4.36,0,0,1,1.18.52,2.65,2.65,0,0,1,.85.85,2.4,2.4,0,0,1,.32,1.33,2.78,2.78,0,0,1-.37,1.48,3,3,0,0,1-1,1,4.19,4.19,0,0,1-1.34.54,6.29,6.29,0,0,1-1.48.17,5.19,5.19,0,0,1-3.47-1,4,4,0,0,1-1.17-3.17h.44a3.5,3.5,0,0,0,1.08,2.84,4.7,4.7,0,0,0,3.12.91,5.79,5.79,0,0,0,1.28-.15,3.66,3.66,0,0,0,1.19-.47,2.69,2.69,0,0,0,.88-.83,2.19,2.19,0,0,0,.35-1.25,2,2,0,0,0-.35-1.23,2.77,2.77,0,0,0-.89-.77,5.33,5.33,0,0,0-1.26-.48L135.63,29l-1.45-.38a7.46,7.46,0,0,1-1.11-.4,2.19,2.19,0,0,1-1-.87,2.82,2.82,0,0,1-.34-1.5,2.77,2.77,0,0,1,.2-1,2.56,2.56,0,0,1,.67-.93,3.54,3.54,0,0,1,1.21-.7,5.52,5.52,0,0,1,1.8-.26,4.84,4.84,0,0,1,3,.87,3.31,3.31,0,0,1,1.11,2.78h-.44A3.57,3.57,0,0,0,139,25.14Z" transform="translate(-0.04)"/><path class="cls-5" d="M142.57,23.22v2.84h0a4.17,4.17,0,0,1,.49-1.23,3.9,3.9,0,0,1,.83-1,3.73,3.73,0,0,1,1.08-.66,3.28,3.28,0,0,1,1.26-.23,3.24,3.24,0,0,1,2.24.68,3.41,3.41,0,0,1,1.19,2h.05a3.55,3.55,0,0,1,1.31-1.94,3.77,3.77,0,0,1,2.32-.73,4.2,4.2,0,0,1,1.74.31,2.93,2.93,0,0,1,1.12.86,3.36,3.36,0,0,1,.6,1.31,7.54,7.54,0,0,1,.18,1.71v7.54h-.45V27.15a8,8,0,0,0-.14-1.54,3,3,0,0,0-.52-1.18,2.34,2.34,0,0,0-1-.76,3.85,3.85,0,0,0-1.55-.27,3.3,3.3,0,0,0-1.49.33,3.18,3.18,0,0,0-1.14.88,3.9,3.9,0,0,0-.71,1.28,4.55,4.55,0,0,0-.25,1.53v7.27h-.44V27.33a9.16,9.16,0,0,0-.13-1.52,3.44,3.44,0,0,0-.45-1.25,2.5,2.5,0,0,0-.94-.85,3.49,3.49,0,0,0-1.56-.31,3.07,3.07,0,0,0-1.54.39,3.66,3.66,0,0,0-1.17,1.05,5,5,0,0,0-.74,1.53,6.47,6.47,0,0,0-.25,1.83v6.49h-.45V23.22Z" transform="translate(-0.04)"/><path class="cls-5" d="M159.52,31.2a5,5,0,0,0,.8,1.72,3.55,3.55,0,0,0,1.38,1.16,4.47,4.47,0,0,0,2.07.43,4.66,4.66,0,0,0,3-.95,4.25,4.25,0,0,0,1.48-2.84h.45a4.58,4.58,0,0,1-1.58,3.11,5.07,5.07,0,0,1-3.3,1.1,5.15,5.15,0,0,1-2.29-.42A4.08,4.08,0,0,1,160,33.25a5.48,5.48,0,0,1-.89-1.92A9.5,9.5,0,0,1,158.8,29a7.21,7.21,0,0,1,.42-2.55,6.09,6.09,0,0,1,1.12-1.88A4.66,4.66,0,0,1,163.82,23a4.85,4.85,0,0,1,2.3.51,4.47,4.47,0,0,1,1.59,1.36,5.65,5.65,0,0,1,.89,1.94,7.79,7.79,0,0,1,.23,2.27h-9.58A9.19,9.19,0,0,0,159.52,31.2Zm8.58-4.6a5.13,5.13,0,0,0-.86-1.66,4.16,4.16,0,0,0-1.42-1.13,4.49,4.49,0,0,0-2-.41,4.28,4.28,0,0,0-1.75.36,4.14,4.14,0,0,0-1.43,1,5.24,5.24,0,0,0-1,1.64,6.79,6.79,0,0,0-.44,2.16h9.14A6.91,6.91,0,0,0,168.1,26.6Z" transform="translate(-0.04)"/><path class="cls-5" d="M171.85,32.46a2.69,2.69,0,0,0,.14,1,1.22,1.22,0,0,0,.37.53,1,1,0,0,0,.49.22l.53,0H174a1.27,1.27,0,0,0,.37-.06v.45l-.39,0a5.27,5.27,0,0,1-.7,0,2,2,0,0,1-1.32-.46,2.11,2.11,0,0,1-.55-1.68V23.67h-2.1v-.45h2.1V19.61h.45v3.61h2.58v.45h-2.58Z" transform="translate(-0.04)"/><path class="cls-5" d="M176,21V18.76h.45V21Zm0,13.67V23.22h.45V34.69Z" transform="translate(-0.04)"/><path class="cls-5" d="M187.65,32.51a4.16,4.16,0,0,1-1,1.31,4.44,4.44,0,0,1-1.42.82,5.48,5.48,0,0,1-1.8.29,4.84,4.84,0,0,1-2.17-.46,4.55,4.55,0,0,1-1.6-1.23,5.41,5.41,0,0,1-1-1.82,7.27,7.27,0,0,1-.33-2.22,8.38,8.38,0,0,1,.32-2.37,5.7,5.7,0,0,1,1-2,4.86,4.86,0,0,1,1.67-1.37,5.25,5.25,0,0,1,2.38-.51,5,5,0,0,1,1.54.24,4.07,4.07,0,0,1,1.31.72,3.84,3.84,0,0,1,1,1.17,4.23,4.23,0,0,1,.5,1.61h-.44a4.19,4.19,0,0,0-.49-1.46,3.62,3.62,0,0,0-.87-1,3.51,3.51,0,0,0-1.16-.62,5.07,5.07,0,0,0-3.67.33,4.35,4.35,0,0,0-1.52,1.36,5.64,5.64,0,0,0-.82,1.87,8.52,8.52,0,0,0-.26,2,6.7,6.7,0,0,0,.3,2A5.33,5.33,0,0,0,180,32.9a4.26,4.26,0,0,0,1.45,1.17,4.44,4.44,0,0,0,2,.44,4.76,4.76,0,0,0,1.58-.26,4,4,0,0,0,1.31-.75,3.65,3.65,0,0,0,.92-1.17,4,4,0,0,0,.43-1.55h.44A4.76,4.76,0,0,1,187.65,32.51Z" transform="translate(-0.04)"/><path class="cls-5" d="M190.49,34.69H190V18.76h.45v11l7.91-6.58h.65l-5.26,4.37,5.64,7.1h-.6l-5.38-6.78-3,2.45Z" transform="translate(-0.04)"/><path class="cls-5" d="M208.06,23.22,202.77,37a2.58,2.58,0,0,1-.53.9,2.26,2.26,0,0,1-.69.48,2.72,2.72,0,0,1-.84.19c-.3,0-.63,0-1,0v-.44c.39,0,.72,0,1,0a1.9,1.9,0,0,0,.72-.18,1.38,1.38,0,0,0,.53-.44,3.43,3.43,0,0,0,.44-.82l.82-2.12-4.77-11.35h.47l4.55,10.86,4.1-10.86Zm-5.66-1.13h-.34L205,18.88h.64Z" transform="translate(-0.04)"/><path class="cls-5" d="M222.42,25.14a2.58,2.58,0,0,0-.76-1,3,3,0,0,0-1.17-.57,5.82,5.82,0,0,0-1.5-.18,4.47,4.47,0,0,0-1.9.33,2.79,2.79,0,0,0-1,.73,2,2,0,0,0-.43.82,3,3,0,0,0-.09.55,2.15,2.15,0,0,0,.35,1.31,2.24,2.24,0,0,0,.92.7,10.61,10.61,0,0,0,1.31.42l1.64.43,1.32.37a4.42,4.42,0,0,1,1.19.52,2.53,2.53,0,0,1,.84.85,2.4,2.4,0,0,1,.33,1.33,2.87,2.87,0,0,1-.37,1.48,3.1,3.1,0,0,1-1,1,4.1,4.1,0,0,1-1.34.54,6.29,6.29,0,0,1-1.48.17,5.21,5.21,0,0,1-3.47-1,4,4,0,0,1-1.17-3.17h.45a3.5,3.5,0,0,0,1.08,2.84,4.69,4.69,0,0,0,3.11.91,5.72,5.72,0,0,0,1.28-.15,3.57,3.57,0,0,0,1.19-.47,2.69,2.69,0,0,0,.88-.83,2.12,2.12,0,0,0,.35-1.25,2,2,0,0,0-.35-1.23,2.67,2.67,0,0,0-.89-.77,5.17,5.17,0,0,0-1.26-.48L219.05,29l-1.45-.38a8.38,8.38,0,0,1-1.11-.4,2.19,2.19,0,0,1-1.05-.87,2.93,2.93,0,0,1-.33-1.5,2.56,2.56,0,0,1,.2-1,2.35,2.35,0,0,1,.67-.93,3.49,3.49,0,0,1,1.2-.7A5.55,5.55,0,0,1,219,23a4.79,4.79,0,0,1,3,.87,3.31,3.31,0,0,1,1.11,2.78h-.44A3.57,3.57,0,0,0,222.42,25.14Z" transform="translate(-0.04)"/><path class="cls-5" d="M225.85,25.26a3.66,3.66,0,0,1,.84-1.21,3.89,3.89,0,0,1,1.34-.8,5.27,5.27,0,0,1,1.86-.29,6.63,6.63,0,0,1,1.44.15,3.18,3.18,0,0,1,1.19.55,3,3,0,0,1,.83,1,3.6,3.6,0,0,1,.33,1.56v7.3a.75.75,0,0,0,.14.49.65.65,0,0,0,.35.21,1.51,1.51,0,0,0,.48,0c.17,0,.33,0,.48,0v.45h-.67a1.57,1.57,0,0,1-.86-.24,1,1,0,0,1-.36-.88V32.08h-.05a3.58,3.58,0,0,1-.57,1.07,4.09,4.09,0,0,1-1,.91,5,5,0,0,1-1.35.64,5.72,5.72,0,0,1-1.65.23,4.64,4.64,0,0,1-2.79-.77,2.69,2.69,0,0,1-1-2.31,3.63,3.63,0,0,1,.34-1.71,2.73,2.73,0,0,1,.91-1,3.68,3.68,0,0,1,1.27-.51,9.87,9.87,0,0,1,1.42-.19l2-.12a6,6,0,0,0,1.4-.23,1.51,1.51,0,0,0,.8-.51,1.64,1.64,0,0,0,.26-1,6.72,6.72,0,0,0-.09-1.07,2.36,2.36,0,0,0-.44-1,2.53,2.53,0,0,0-1-.77,4.52,4.52,0,0,0-1.81-.3,4.17,4.17,0,0,0-2.81.88A3.46,3.46,0,0,0,226,26.77h-.45A4.68,4.68,0,0,1,225.85,25.26ZM233.19,28a1.38,1.38,0,0,1-.69.48,5.79,5.79,0,0,1-1.07.26,12.63,12.63,0,0,1-1.3.11c-.47,0-.93,0-1.38.07a11,11,0,0,0-1.3.16,3,3,0,0,0-1.13.45,2.34,2.34,0,0,0-.78.89,3.3,3.3,0,0,0-.29,1.48,3,3,0,0,0,.17,1,2,2,0,0,0,.57.85,3,3,0,0,0,1,.6,4.53,4.53,0,0,0,1.58.24,5,5,0,0,0,2-.38,4.38,4.38,0,0,0,1.46-1,4,4,0,0,0,.89-1.42,4.44,4.44,0,0,0,.31-1.65V28Z" transform="translate(-0.04)"/><path class="cls-5" d="M236.72,18.76V34.69h-.45V18.76Z" transform="translate(-0.04)"/><path class="cls-5" d="M238.9,26.69a5.69,5.69,0,0,1,1-1.91,5,5,0,0,1,1.62-1.32,5.18,5.18,0,0,1,4.44,0,4.92,4.92,0,0,1,1.61,1.32,5.9,5.9,0,0,1,1,1.91,7.94,7.94,0,0,1,0,4.53,5.75,5.75,0,0,1-1,1.9,4.68,4.68,0,0,1-3.84,1.81,4.73,4.73,0,0,1-2.21-.49,4.84,4.84,0,0,1-1.62-1.32,5.55,5.55,0,0,1-1-1.9,7.71,7.71,0,0,1,0-4.53Zm.41,4.36a5.13,5.13,0,0,0,.91,1.77,4.56,4.56,0,0,0,5.54,1.23,4.4,4.4,0,0,0,1.48-1.23,5.29,5.29,0,0,0,.9-1.77,7.4,7.4,0,0,0,0-4.17,5.29,5.29,0,0,0-.9-1.77,4.67,4.67,0,0,0-1.48-1.24,4.27,4.27,0,0,0-2-.47,4.32,4.32,0,0,0-2,.47,4.56,4.56,0,0,0-1.48,1.24,5.13,5.13,0,0,0-.91,1.77,7.4,7.4,0,0,0,0,4.17Zm3.54-9h-.34l3-3.21h.64Z" transform="translate(-0.04)"/><path class="cls-5" d="M251.19,23.22v2.84h0a4.18,4.18,0,0,1,.5-1.23,3.86,3.86,0,0,1,.87-1,4.09,4.09,0,0,1,1.22-.66,4.66,4.66,0,0,1,1.54-.23,5.08,5.08,0,0,1,1.64.26,3.74,3.74,0,0,1,1.29.8,3.54,3.54,0,0,1,.85,1.29,4.83,4.83,0,0,1,.3,1.77v7.61H259V27.15a4.56,4.56,0,0,0-.29-1.71,3.23,3.23,0,0,0-.79-1.16,3.27,3.27,0,0,0-1.16-.67,4.54,4.54,0,0,0-1.39-.21,4,4,0,0,0-1.81.39,3.82,3.82,0,0,0-1.3,1.05,4.65,4.65,0,0,0-.8,1.53,6.48,6.48,0,0,0-.26,1.83v6.49h-.45V23.22Z" transform="translate(-0.04)"/></svg>