<?xml version="1.0" encoding="utf-8"?>
<!-- Generator: Adobe Illustrator 15.0.0, SVG Export Plug-In . SVG Version: 6.00 Build 0)  -->
<!DOCTYPE svg PUBLIC "-//W3C//DTD SVG 1.1//EN" "http://www.w3.org/Graphics/SVG/1.1/DTD/svg11.dtd">
<svg version="1.1" id="Vrstva_1" xmlns="http://www.w3.org/2000/svg" xmlns:xlink="http://www.w3.org/1999/xlink" x="0px" y="0px"
	 width="96.586px" height="115.056px" viewBox="93.602 89.055 96.586 115.056"
	 enable-background="new 93.602 89.055 96.586 115.056" xml:space="preserve">
<g>
	<polyline fill="none" stroke="#000000" stroke-width="0.44" stroke-miterlimit="10" points="141.926,115.92 141.896,161.455 
		141.896,161.527 141.896,161.667 	"/>
	<g>
		<g>
			<defs>
				<rect id="SVGID_1_" x="93.602" y="89.099" width="96.586" height="84.092"/>
			</defs>
			<clipPath id="SVGID_2_">
				<use xlink:href="#SVGID_1_"  overflow="visible"/>
			</clipPath>
			<path clip-path="url(#SVGID_2_)" fill="none" stroke="#000000" stroke-width="0.44" stroke-miterlimit="10" d="M160.223,135.399
				L160.223,135.399c-0.013-0.022-0.022-0.042-0.033-0.062c-4.096-8.161-10.457-14.986-18.261-19.652c0,0,0,0.001-0.002,0.001
				c-0.021,0.012-0.042,0.025-0.062,0.038c-7.788,4.673-14.135,11.499-18.22,19.656c-0.032,0.063-0.063,0.127-0.095,0.19"/>
		</g>
		<g>
			<defs>
				<rect id="SVGID_3_" x="93.602" y="89.099" width="96.586" height="84.092"/>
			</defs>
			<clipPath id="SVGID_4_">
				<use xlink:href="#SVGID_3_"  overflow="visible"/>
			</clipPath>
			<path clip-path="url(#SVGID_4_)" fill="none" stroke="#000000" stroke-width="0.44" stroke-miterlimit="10" d="M121.236,114.883
				c3.695-10.66,11.055-19.607,20.573-25.335c0.04-0.024,0.079-0.048,0.119-0.072c0.018,0.011,0.035,0.022,0.053,0.032
				c9.522,5.71,16.892,14.637,20.606,25.28"/>
		</g>
		<g>
			<defs>
				<rect id="SVGID_5_" x="93.602" y="89.099" width="96.586" height="84.092"/>
			</defs>
			<clipPath id="SVGID_6_">
				<use xlink:href="#SVGID_5_"  overflow="visible"/>
			</clipPath>
			<path clip-path="url(#SVGID_6_)" fill="none" stroke="#000000" stroke-width="0.44" stroke-miterlimit="10" d="M160.223,135.399
				L160.223,135.399c0-0.001,0-0.002-0.002-0.002c-0.002-0.028-0.007-0.056-0.009-0.083v-0.001
				c-0.162-1.602-0.244-3.226-0.244-4.872c0-5.482,0.921-10.748,2.619-15.653c3.709-10.715,11.117-19.702,20.701-25.431
				c4.222,7.129,6.645,15.45,6.645,24.335c0,2.474-0.188,4.902-0.551,7.274c-2.192,14.373-10.781,26.643-22.771,33.811
				c-0.454,0.273-0.913,0.537-1.378,0.794c-5.133,2.841-10.843,4.769-16.91,5.554c-0.318,0.043-0.641,0.082-0.96,0.117
				c-1.729,0.189-3.485,0.287-5.267,0.287h-0.201h-0.202c-1.78,0-3.537-0.098-5.267-0.287c-0.316-0.035-0.632-0.072-0.947-0.113
				c-21.094-2.734-37.876-19.213-41.072-40.162c-0.362-2.372-0.55-4.801-0.55-7.274c0-8.885,2.423-17.206,6.644-24.335
				c9.611,5.746,17.037,14.77,20.734,25.526v0.001c1.676,4.877,2.586,10.111,2.586,15.557c0,1.646-0.083,3.27-0.245,4.872v0.001"/>
		</g>
		<g>
			<defs>
				<rect id="SVGID_7_" x="93.602" y="89.099" width="96.586" height="84.092"/>
			</defs>
			<clipPath id="SVGID_8_">
				<use xlink:href="#SVGID_7_"  overflow="visible"/>
			</clipPath>
			<path clip-path="url(#SVGID_8_)" fill="none" stroke="#000000" stroke-width="0.352" stroke-miterlimit="10" d="M94.407,120.965
				c11.411,1.25,21.615,6.512,29.17,14.347v0.001c0.023,0.022,0.043,0.044,0.066,0.067c6.669,6.944,12.783,19.577,12.783,37.583
				h10.937c0-33.034,20.481-49.639,42.02-51.999"/>
		</g>
	</g>
	<polyline fill="none" stroke="#000000" stroke-width="0.352" stroke-miterlimit="10" points="141.887,172.964 141.896,161.667 
		141.896,161.527 	"/>
	<g>
		<path d="M103.399,191.88v0.976h-4.183v11.021h-1.142v-11.021h-4.167v-0.976H103.399z"/>
		<path d="M108.188,191.88l4.704,11.996h-1.227l-1.461-3.729h-5.459l-1.445,3.729h-1.209l4.821-11.996H108.188z M109.817,199.171
			l-2.318-6.147l-2.402,6.147H109.817z"/>
		<path d="M115.629,191.88l3.981,10.518l4.132-10.518h1.68v11.996h-1.143v-10.365h-0.033l-4.099,10.365h-1.075l-3.948-10.365h-0.034
			v10.365h-1.143V191.88H115.629z"/>
		<path d="M132.563,191.88l4.704,11.996h-1.227l-1.461-3.729h-5.459l-1.445,3.729h-1.209l4.821-11.996H132.563z M134.192,199.171
			l-2.318-6.147l-2.402,6.147H134.192z"/>
		<path d="M143.852,191.88c0.493,0,0.961,0.062,1.401,0.187c0.443,0.123,0.83,0.312,1.16,0.562c0.33,0.252,0.594,0.578,0.789,0.976
			s0.295,0.865,0.295,1.401c0,0.763-0.197,1.424-0.588,1.982c-0.393,0.561-0.975,0.918-1.748,1.075v0.033
			c0.394,0.057,0.717,0.159,0.976,0.312c0.258,0.15,0.467,0.344,0.63,0.579c0.162,0.235,0.279,0.507,0.354,0.813
			c0.071,0.31,0.121,0.643,0.143,1c0.012,0.201,0.023,0.449,0.033,0.74c0.012,0.291,0.033,0.584,0.068,0.881
			c0.032,0.297,0.086,0.578,0.158,0.841c0.073,0.264,0.171,0.468,0.294,0.612h-1.26c-0.067-0.111-0.121-0.248-0.16-0.41
			c-0.039-0.164-0.065-0.332-0.084-0.506c-0.017-0.172-0.03-0.344-0.041-0.512c-0.012-0.168-0.022-0.312-0.034-0.438
			c-0.021-0.426-0.059-0.848-0.109-1.268c-0.049-0.421-0.156-0.796-0.318-1.127c-0.162-0.33-0.396-0.597-0.705-0.798
			c-0.309-0.2-0.73-0.291-1.27-0.269h-4.333v5.324h-1.143v-11.994h5.493V191.88z M143.768,197.576c0.349,0,0.678-0.053,0.991-0.158
			c0.312-0.106,0.589-0.262,0.822-0.463c0.235-0.201,0.424-0.445,0.562-0.73c0.141-0.285,0.211-0.613,0.211-0.982
			c0-0.738-0.213-1.32-0.639-1.746c-0.426-0.427-1.075-0.64-1.949-0.64H139.5v4.722h4.268V197.576z"/>
		<path d="M148.001,191.88h1.345l3.946,6.082l3.933-6.082h1.36l-4.737,7.057v4.939h-1.144v-4.939L148.001,191.88z"/>
		<path d="M160.449,201.474c0.201,0.414,0.479,0.744,0.832,0.99c0.354,0.246,0.77,0.424,1.252,0.529
			c0.48,0.106,0.996,0.159,1.545,0.159c0.312,0,0.654-0.044,1.024-0.134s0.714-0.232,1.033-0.43
			c0.319-0.196,0.585-0.447,0.798-0.756c0.213-0.308,0.318-0.681,0.318-1.117c0-0.336-0.074-0.627-0.227-0.873
			c-0.15-0.246-0.348-0.453-0.589-0.621c-0.24-0.168-0.506-0.305-0.797-0.412c-0.292-0.105-0.577-0.191-0.856-0.26l-2.672-0.655
			c-0.347-0.09-0.688-0.202-1.017-0.336c-0.33-0.136-0.619-0.313-0.865-0.538s-0.444-0.498-0.597-0.822
			c-0.15-0.324-0.227-0.723-0.227-1.193c0-0.291,0.055-0.633,0.168-1.023c0.111-0.393,0.321-0.762,0.629-1.109
			c0.31-0.347,0.731-0.641,1.271-0.881c0.537-0.24,1.226-0.361,2.065-0.361c0.594,0,1.158,0.078,1.695,0.234
			c0.538,0.157,1.01,0.393,1.412,0.706s0.725,0.703,0.966,1.167c0.241,0.465,0.36,1.006,0.36,1.621h-1.143
			c-0.021-0.459-0.125-0.859-0.312-1.201c-0.185-0.341-0.426-0.627-0.722-0.855c-0.297-0.229-0.639-0.403-1.024-0.521
			c-0.387-0.117-0.793-0.177-1.219-0.177c-0.392,0-0.771,0.042-1.134,0.126c-0.364,0.084-0.684,0.219-0.957,0.402
			c-0.274,0.185-0.495,0.43-0.664,0.73c-0.168,0.303-0.252,0.678-0.252,1.127c0,0.279,0.048,0.522,0.144,0.729
			c0.095,0.208,0.228,0.384,0.396,0.528c0.168,0.146,0.36,0.265,0.578,0.354c0.219,0.09,0.451,0.163,0.697,0.219l2.924,0.723
			c0.426,0.111,0.825,0.25,1.2,0.412s0.706,0.363,0.991,0.604c0.286,0.24,0.51,0.535,0.673,0.883
			c0.162,0.348,0.243,0.768,0.243,1.26c0,0.135-0.016,0.313-0.042,0.537c-0.028,0.225-0.097,0.463-0.201,0.715
			c-0.106,0.252-0.258,0.506-0.454,0.764c-0.195,0.259-0.465,0.49-0.807,0.697s-0.766,0.375-1.27,0.504s-1.107,0.193-1.813,0.193
			c-0.705,0-1.36-0.08-1.966-0.244c-0.604-0.162-1.119-0.41-1.545-0.746s-0.754-0.769-0.982-1.295
			c-0.229-0.525-0.327-1.158-0.294-1.897h1.144C160.152,200.544,160.248,201.06,160.449,201.474z M162.314,188.555l1.443,1.714
			l1.479-1.714h0.975l-1.914,2.368h-1.159l-1.914-2.368H162.314z"/>
		<path d="M178.492,191.88v0.976h-7.141v4.334h6.688v0.976h-6.688v4.736h7.225v0.975h-8.367v-11.994h8.283V191.88z"/>
		<path d="M181.313,191.88v6.451l6.972-6.451h1.547l-5.359,4.957l5.611,7.039h-1.479l-4.989-6.25l-2.302,2.133v4.117h-1.142V191.88
			H181.313z"/>
	</g>
</g>
<g>
	<path d="M94.397,177.552h0.517v6.433l4.311-3.713h0.748l-3.06,2.61l3.278,4.38h-0.708l-2.978-3.984l-1.591,1.347v2.639h-0.517
		V177.552z"/>
	<path d="M100.178,183.767c0-0.499,0.07-0.969,0.211-1.407c0.141-0.44,0.347-0.827,0.619-1.163s0.607-0.601,1.006-0.796
		c0.399-0.194,0.857-0.292,1.374-0.292c0.517,0,0.974,0.098,1.374,0.292c0.399,0.195,0.734,0.46,1.006,0.796
		s0.478,0.723,0.619,1.163c0.141,0.438,0.211,0.908,0.211,1.407s-0.07,0.97-0.211,1.414c-0.141,0.443-0.347,0.832-0.619,1.162
		c-0.272,0.332-0.607,0.595-1.006,0.789c-0.399,0.195-0.857,0.293-1.374,0.293c-0.517,0-0.975-0.098-1.374-0.293
		c-0.399-0.194-0.734-0.457-1.006-0.789c-0.272-0.33-0.478-0.719-0.619-1.162C100.248,184.737,100.178,184.266,100.178,183.767z
		 M100.695,183.767c0,0.417,0.059,0.818,0.177,1.203c0.118,0.386,0.29,0.729,0.517,1.027s0.508,0.537,0.843,0.713
		c0.335,0.178,0.721,0.267,1.156,0.267c0.435,0,0.82-0.089,1.156-0.267c0.336-0.176,0.617-0.414,0.843-0.713
		c0.227-0.301,0.399-0.643,0.517-1.027c0.118-0.385,0.177-0.786,0.177-1.203s-0.059-0.818-0.177-1.204
		c-0.118-0.385-0.29-0.728-0.517-1.026c-0.227-0.298-0.508-0.537-0.843-0.713c-0.335-0.178-0.721-0.267-1.156-0.267
		c-0.436,0-0.821,0.089-1.156,0.267c-0.335,0.176-0.617,0.414-0.843,0.713c-0.226,0.299-0.399,0.643-0.517,1.026
		C100.753,182.949,100.695,183.35,100.695,183.767z"/>
	<path d="M108.052,184.937c0.018,0.326,0.091,0.613,0.218,0.863c0.127,0.248,0.292,0.462,0.496,0.639
		c0.204,0.178,0.442,0.312,0.714,0.4c0.272,0.092,0.566,0.138,0.884,0.138c0.227,0,0.469-0.021,0.728-0.062
		c0.259-0.041,0.499-0.115,0.721-0.226c0.222-0.108,0.406-0.261,0.551-0.455c0.145-0.194,0.218-0.442,0.218-0.741
		c0-0.391-0.118-0.685-0.354-0.885c-0.236-0.199-0.533-0.354-0.891-0.462s-0.744-0.196-1.156-0.267
		c-0.413-0.066-0.798-0.17-1.156-0.305c-0.358-0.137-0.655-0.328-0.891-0.578c-0.236-0.25-0.354-0.615-0.354-1.096
		c0-0.345,0.077-0.633,0.231-0.863c0.154-0.23,0.351-0.414,0.591-0.551s0.51-0.232,0.809-0.293c0.299-0.059,0.599-0.088,0.898-0.088
		c0.362,0,0.702,0.04,1.02,0.122c0.317,0.082,0.591,0.213,0.823,0.396c0.231,0.182,0.412,0.412,0.544,0.692
		c0.131,0.281,0.197,0.621,0.197,1.021h-0.517c0-0.316-0.052-0.59-0.156-0.815c-0.104-0.228-0.25-0.41-0.435-0.551
		c-0.186-0.142-0.406-0.245-0.66-0.312c-0.254-0.068-0.526-0.104-0.816-0.104c-0.236,0-0.474,0.023-0.714,0.068
		c-0.24,0.045-0.456,0.121-0.646,0.23c-0.19,0.107-0.347,0.249-0.469,0.421c-0.122,0.173-0.184,0.382-0.184,0.626
		c0,0.281,0.068,0.508,0.204,0.68c0.136,0.174,0.315,0.312,0.537,0.416c0.222,0.104,0.472,0.188,0.748,0.252
		c0.277,0.062,0.556,0.127,0.836,0.189c0.345,0.062,0.668,0.139,0.973,0.225c0.304,0.086,0.566,0.203,0.789,0.354
		c0.222,0.148,0.396,0.342,0.524,0.576c0.126,0.236,0.19,0.535,0.19,0.898c0,0.381-0.086,0.693-0.258,0.938
		c-0.172,0.245-0.39,0.442-0.653,0.592s-0.555,0.254-0.877,0.313c-0.322,0.059-0.637,0.088-0.945,0.088
		c-0.399,0-0.769-0.053-1.108-0.156c-0.339-0.104-0.637-0.264-0.891-0.477c-0.254-0.213-0.454-0.474-0.599-0.781
		c-0.145-0.309-0.222-0.668-0.231-1.074h0.517V184.937z"/>
	<path d="M114.362,180.271h0.517v1.428h0.027c0.054-0.218,0.149-0.424,0.286-0.619c0.136-0.193,0.301-0.363,0.496-0.51
		c0.195-0.145,0.413-0.258,0.653-0.34c0.24-0.082,0.492-0.122,0.755-0.122c0.335,0,0.625,0.043,0.871,0.129
		c0.245,0.087,0.453,0.199,0.625,0.341c0.172,0.141,0.308,0.299,0.408,0.477c0.1,0.177,0.168,0.355,0.204,0.537h0.027
		c0.208-0.49,0.487-0.859,0.836-1.108c0.349-0.25,0.809-0.374,1.38-0.374c0.317,0,0.61,0.047,0.877,0.143
		c0.268,0.096,0.499,0.24,0.694,0.437c0.195,0.194,0.347,0.44,0.456,0.741c0.109,0.299,0.163,0.652,0.163,1.061v4.773h-0.517v-4.787
		c0-0.443-0.068-0.793-0.204-1.047s-0.297-0.447-0.483-0.578c-0.186-0.132-0.372-0.213-0.558-0.245
		c-0.186-0.03-0.329-0.048-0.428-0.048c-0.317,0-0.61,0.055-0.877,0.163c-0.268,0.108-0.499,0.272-0.693,0.489
		c-0.195,0.219-0.347,0.488-0.456,0.81s-0.163,0.69-0.163,1.108v4.135h-0.517v-4.787c0-0.436-0.066-0.782-0.197-1.04
		c-0.131-0.259-0.286-0.451-0.462-0.578c-0.176-0.127-0.358-0.209-0.544-0.245c-0.186-0.035-0.333-0.055-0.442-0.055
		c-0.245,0-0.499,0.05-0.762,0.148c-0.263,0.102-0.503,0.256-0.721,0.463c-0.218,0.209-0.395,0.477-0.53,0.804
		c-0.136,0.325-0.204,0.712-0.204,1.155v4.135h-0.517V180.271z"/>
	<path d="M125.365,183.835v0.08c0,0.408,0.054,0.799,0.164,1.17c0.109,0.373,0.27,0.699,0.484,0.979
		c0.214,0.281,0.482,0.504,0.805,0.667c0.322,0.163,0.698,0.245,1.125,0.245c0.7,0,1.254-0.185,1.664-0.552
		c0.41-0.366,0.691-0.877,0.846-1.529h0.517c-0.154,0.814-0.487,1.441-1,1.877c-0.512,0.436-1.19,0.652-2.033,0.652
		c-0.517,0-0.968-0.094-1.353-0.278c-0.386-0.187-0.708-0.44-0.966-0.763c-0.258-0.321-0.451-0.702-0.578-1.143
		c-0.127-0.439-0.19-0.912-0.19-1.421c0-0.489,0.066-0.959,0.197-1.407c0.131-0.449,0.329-0.844,0.592-1.184
		c0.263-0.341,0.591-0.611,0.986-0.816c0.395-0.203,0.859-0.306,1.394-0.306c0.49,0,0.922,0.091,1.299,0.271
		c0.376,0.183,0.691,0.43,0.945,0.742c0.253,0.312,0.446,0.676,0.578,1.088c0.131,0.412,0.197,0.854,0.197,1.326
		c0,0.045-0.002,0.098-0.007,0.155c-0.004,0.06-0.007,0.106-0.007,0.144h-5.659V183.835z M130.505,183.386
		c-0.018-0.381-0.082-0.741-0.191-1.081c-0.109-0.341-0.271-0.64-0.484-0.897c-0.214-0.259-0.473-0.465-0.777-0.619
		c-0.304-0.154-0.652-0.23-1.043-0.23c-0.418,0-0.787,0.08-1.105,0.238c-0.318,0.158-0.586,0.367-0.804,0.625
		c-0.218,0.259-0.387,0.561-0.505,0.904c-0.118,0.346-0.191,0.698-0.218,1.062L130.505,183.386L130.505,183.386z"/>
	<path d="M134.803,180.72h-1.523v4.883c0,0.281,0.032,0.503,0.095,0.666s0.161,0.288,0.292,0.374c0.131,0.087,0.29,0.14,0.476,0.157
		s0.401,0.021,0.646,0.013v0.449c-0.263,0.018-0.519,0.016-0.769-0.007c-0.25-0.023-0.469-0.092-0.659-0.205
		c-0.19-0.112-0.343-0.282-0.456-0.51c-0.113-0.227-0.161-0.539-0.143-0.938v-4.883h-1.292v-0.448h1.292v-2.176h0.517v2.176h1.523
		L134.803,180.72L134.803,180.72z"/>
	<path d="M135.877,178.953v-1.4h0.517v1.4H135.877z M135.877,187.262v-6.99h0.517v6.99H135.877z"/>
	<path d="M143.303,182.434c-0.027-0.308-0.107-0.58-0.238-0.815c-0.131-0.236-0.301-0.431-0.51-0.584
		c-0.209-0.154-0.451-0.272-0.728-0.354c-0.277-0.082-0.574-0.123-0.891-0.123c-0.435,0-0.82,0.089-1.156,0.267
		c-0.336,0.176-0.617,0.411-0.843,0.706c-0.226,0.296-0.399,0.63-0.517,1.007s-0.177,0.764-0.177,1.162
		c0,0.473,0.054,0.907,0.163,1.307c0.109,0.398,0.276,0.746,0.503,1.041c0.227,0.293,0.508,0.522,0.843,0.687
		s0.73,0.245,1.183,0.245c0.327,0,0.628-0.055,0.905-0.164c0.276-0.107,0.521-0.258,0.734-0.447c0.213-0.191,0.387-0.42,0.523-0.688
		c0.136-0.268,0.226-0.561,0.271-0.879h0.516c-0.053,0.418-0.168,0.789-0.34,1.115c-0.172,0.328-0.389,0.602-0.651,0.823
		s-0.562,0.394-0.897,0.511c-0.335,0.117-0.689,0.176-1.061,0.176c-0.571,0-1.059-0.102-1.462-0.305
		c-0.403-0.205-0.734-0.479-0.993-0.824c-0.259-0.344-0.449-0.74-0.571-1.188c-0.123-0.448-0.184-0.918-0.184-1.407
		c0-0.49,0.07-0.953,0.211-1.388c0.141-0.437,0.347-0.815,0.619-1.144c0.272-0.326,0.607-0.584,1.006-0.774s0.857-0.285,1.374-0.285
		c0.381,0,0.737,0.048,1.068,0.144c0.331,0.095,0.625,0.238,0.884,0.429s0.47,0.433,0.632,0.728
		c0.164,0.295,0.264,0.637,0.301,1.026h-0.517V182.434z"/>
	<path d="M145.125,177.552h0.518v6.433l4.312-3.713h0.748l-3.062,2.61l3.276,4.38h-0.707l-2.979-3.984l-1.591,1.347v2.639h-0.517
		V177.552L145.125,177.552z"/>
	<path d="M150.55,180.271h0.613l2.598,6.378l2.394-6.378h0.585l-2.992,7.738c-0.145,0.345-0.277,0.642-0.4,0.891
		c-0.122,0.249-0.262,0.434-0.414,0.551c-0.182,0.146-0.396,0.233-0.646,0.266c-0.248,0.031-0.578,0.048-0.986,0.048v-0.448
		c0.373,0,0.662-0.029,0.871-0.089s0.404-0.179,0.586-0.36c0.1-0.1,0.203-0.283,0.312-0.551s0.245-0.632,0.408-1.095L150.55,180.271
		z M154.89,177.333h0.693l-1.822,1.903h-0.504L154.89,177.333z"/>
	<path d="M161.458,184.937c0.019,0.326,0.09,0.613,0.217,0.863c0.128,0.248,0.294,0.462,0.498,0.639
		c0.203,0.178,0.44,0.312,0.714,0.4c0.271,0.092,0.565,0.138,0.884,0.138c0.227,0,0.471-0.021,0.729-0.062s0.498-0.115,0.721-0.226
		c0.223-0.108,0.406-0.261,0.551-0.455c0.146-0.194,0.218-0.442,0.218-0.741c0-0.391-0.118-0.685-0.354-0.885
		c-0.235-0.199-0.532-0.354-0.891-0.462c-0.357-0.108-0.744-0.196-1.156-0.267c-0.412-0.066-0.797-0.17-1.155-0.305
		c-0.358-0.137-0.655-0.328-0.892-0.578c-0.234-0.25-0.354-0.615-0.354-1.096c0-0.345,0.077-0.633,0.23-0.863
		c0.154-0.23,0.352-0.414,0.592-0.551s0.511-0.232,0.81-0.293c0.3-0.059,0.599-0.088,0.897-0.088c0.363,0,0.703,0.04,1.021,0.122
		c0.318,0.082,0.593,0.213,0.822,0.396c0.231,0.182,0.413,0.412,0.544,0.692c0.132,0.281,0.197,0.621,0.197,1.021h-0.518
		c0-0.316-0.052-0.59-0.156-0.815c-0.104-0.226-0.248-0.41-0.436-0.551c-0.186-0.142-0.404-0.245-0.659-0.312
		c-0.254-0.068-0.526-0.104-0.815-0.104c-0.235,0-0.475,0.023-0.715,0.068c-0.239,0.045-0.455,0.121-0.646,0.23
		c-0.19,0.107-0.347,0.249-0.47,0.421c-0.122,0.173-0.184,0.382-0.184,0.626c0,0.281,0.067,0.508,0.203,0.68
		c0.137,0.174,0.315,0.312,0.537,0.416c0.223,0.104,0.473,0.188,0.748,0.252c0.275,0.063,0.557,0.127,0.837,0.189
		c0.345,0.062,0.668,0.139,0.972,0.225c0.305,0.086,0.567,0.203,0.789,0.354c0.224,0.148,0.396,0.342,0.523,0.576
		c0.127,0.236,0.189,0.535,0.189,0.898c0,0.381-0.086,0.693-0.258,0.938c-0.173,0.245-0.391,0.442-0.652,0.592
		s-0.557,0.254-0.877,0.313c-0.322,0.059-0.637,0.088-0.945,0.088c-0.398,0-0.77-0.053-1.107-0.156
		c-0.34-0.104-0.638-0.264-0.892-0.477s-0.453-0.474-0.599-0.781c-0.146-0.309-0.224-0.668-0.231-1.074h0.519V184.937z"/>
	<path d="M172.393,185.875h-0.026c-0.082,0.209-0.199,0.405-0.354,0.592c-0.154,0.187-0.343,0.352-0.563,0.496
		c-0.224,0.146-0.475,0.259-0.756,0.341c-0.281,0.081-0.59,0.122-0.925,0.122c-0.743,0-1.319-0.161-1.728-0.482
		c-0.408-0.322-0.611-0.818-0.611-1.488c0-0.408,0.081-0.742,0.244-1c0.162-0.259,0.369-0.463,0.619-0.611
		c0.248-0.15,0.524-0.258,0.828-0.32c0.305-0.062,0.598-0.107,0.879-0.136l0.802-0.068c0.372-0.026,0.663-0.069,0.878-0.129
		c0.213-0.06,0.374-0.142,0.482-0.245c0.107-0.104,0.176-0.236,0.203-0.4s0.041-0.366,0.041-0.611c0-0.189-0.037-0.367-0.109-0.53
		c-0.071-0.163-0.186-0.309-0.34-0.437c-0.153-0.127-0.354-0.227-0.599-0.299c-0.243-0.072-0.544-0.108-0.897-0.108
		c-0.625,0-1.131,0.153-1.517,0.463c-0.385,0.31-0.596,0.774-0.632,1.399h-0.518c0.037-0.771,0.283-1.348,0.742-1.732
		c0.457-0.386,1.107-0.578,1.95-0.578c0.845,0,1.457,0.165,1.843,0.496c0.387,0.331,0.578,0.764,0.578,1.299v4.066
		c0,0.1,0.002,0.199,0.008,0.299c0.004,0.102,0.021,0.189,0.047,0.271c0.027,0.082,0.072,0.147,0.137,0.197
		c0.064,0.051,0.154,0.074,0.271,0.074c0.09,0,0.217-0.014,0.381-0.04v0.435c-0.137,0.037-0.276,0.056-0.422,0.056
		c-0.209,0-0.373-0.027-0.496-0.082c-0.123-0.054-0.215-0.126-0.278-0.218c-0.063-0.09-0.106-0.196-0.129-0.319
		c-0.023-0.122-0.034-0.256-0.034-0.399L172.393,185.875L172.393,185.875z M172.393,183.291c-0.127,0.153-0.319,0.258-0.578,0.312
		s-0.547,0.096-0.862,0.122l-0.871,0.082c-0.254,0.026-0.509,0.065-0.763,0.114c-0.254,0.051-0.481,0.135-0.687,0.252
		c-0.204,0.117-0.369,0.279-0.496,0.482c-0.127,0.204-0.19,0.471-0.19,0.797c0,0.516,0.163,0.898,0.489,1.148
		c0.326,0.249,0.775,0.374,1.348,0.374c0.588,0,1.055-0.106,1.399-0.32c0.345-0.213,0.606-0.457,0.789-0.733
		c0.182-0.276,0.297-0.545,0.347-0.803c0.051-0.259,0.075-0.434,0.075-0.523V183.291L172.393,183.291z"/>
	<path d="M175.193,177.552v9.71h-0.518v-9.71H175.193z"/>
	<path d="M176.514,183.767c0-0.499,0.069-0.969,0.211-1.407c0.14-0.44,0.347-0.827,0.618-1.163s0.607-0.601,1.007-0.796
		c0.397-0.194,0.856-0.292,1.373-0.292s0.976,0.098,1.374,0.292c0.398,0.195,0.734,0.46,1.006,0.796s0.479,0.723,0.619,1.163
		c0.141,0.438,0.211,0.908,0.211,1.407s-0.07,0.97-0.211,1.414c-0.141,0.443-0.348,0.832-0.619,1.162
		c-0.271,0.332-0.607,0.595-1.006,0.789c-0.399,0.195-0.857,0.293-1.374,0.293s-0.976-0.098-1.373-0.293
		c-0.399-0.194-0.733-0.457-1.007-0.789c-0.271-0.33-0.479-0.719-0.618-1.162C176.583,184.736,176.514,184.266,176.514,183.767z
		 M177.03,183.767c0,0.417,0.06,0.818,0.177,1.203c0.117,0.386,0.291,0.729,0.518,1.027s0.508,0.537,0.844,0.713
		c0.335,0.178,0.721,0.267,1.155,0.267c0.437,0,0.819-0.089,1.155-0.267c0.336-0.176,0.617-0.414,0.844-0.713
		c0.227-0.301,0.398-0.643,0.518-1.027c0.117-0.385,0.178-0.786,0.178-1.203s-0.061-0.818-0.178-1.204
		c-0.117-0.385-0.291-0.728-0.518-1.026c-0.227-0.298-0.508-0.537-0.844-0.713c-0.336-0.178-0.721-0.267-1.155-0.267
		s-0.82,0.089-1.155,0.267c-0.336,0.176-0.617,0.414-0.844,0.713s-0.398,0.643-0.518,1.026
		C177.089,182.949,177.03,183.35,177.03,183.767z M180.796,177.333h0.695l-1.822,1.903h-0.504L180.796,177.333z"/>
	<path d="M184.143,180.271h0.517v1.496h0.027c0.091-0.264,0.221-0.497,0.389-0.7c0.168-0.204,0.361-0.379,0.584-0.524
		c0.223-0.145,0.465-0.252,0.729-0.326c0.263-0.071,0.529-0.107,0.802-0.107c0.408,0,0.755,0.051,1.041,0.148
		c0.285,0.101,0.519,0.231,0.7,0.396c0.181,0.164,0.324,0.347,0.429,0.552c0.104,0.203,0.179,0.409,0.224,0.617
		c0.047,0.209,0.074,0.411,0.082,0.605c0.01,0.195,0.015,0.365,0.015,0.51v4.325h-0.517v-4.421c0-0.172-0.015-0.389-0.041-0.652
		c-0.027-0.264-0.106-0.514-0.238-0.754c-0.131-0.24-0.331-0.447-0.6-0.619c-0.267-0.172-0.637-0.259-1.107-0.259
		c-0.398,0-0.752,0.073-1.061,0.218c-0.31,0.146-0.572,0.348-0.789,0.605c-0.218,0.258-0.384,0.565-0.496,0.925
		c-0.113,0.358-0.17,0.75-0.17,1.176v3.781h-0.518L184.143,180.271L184.143,180.271z"/>
</g>
</svg>
