<?xml version="1.0" encoding="utf-8"?>
<!-- Generator: Adobe Illustrator 15.0.0, SVG Export Plug-In . SVG Version: 6.00 Build 0)  -->
<!DOCTYPE svg PUBLIC "-//W3C//DTD SVG 1.1//EN" "http://www.w3.org/Graphics/SVG/1.1/DTD/svg11.dtd">
<svg version="1.1" id="Vrstva_1" xmlns="http://www.w3.org/2000/svg" xmlns:xlink="http://www.w3.org/1999/xlink" x="0px" y="0px"
	 width="260.328px" height="84.136px" viewBox="10.602 89.055 260.328 84.136"
	 enable-background="new 10.602 89.055 260.328 84.136" xml:space="preserve">
<g>
	<polyline fill="none" stroke="#000000" stroke-width="0.44" stroke-miterlimit="10" points="58.926,115.92 58.896,161.455 
		58.896,161.527 58.896,161.667 	"/>
	<g>
		<g>
			<defs>
				<rect id="SVGID_1_" x="10.602" y="89.099" width="96.586" height="84.092"/>
			</defs>
			<clipPath id="SVGID_2_">
				<use xlink:href="#SVGID_1_"  overflow="visible"/>
			</clipPath>
			<path clip-path="url(#SVGID_2_)" fill="none" stroke="#000000" stroke-width="0.44" stroke-miterlimit="10" d="M77.223,135.399
				L77.223,135.399c-0.012-0.022-0.022-0.042-0.033-0.062c-4.096-8.161-10.457-14.986-18.261-19.652c0,0,0,0.001-0.002,0.001
				c-0.021,0.012-0.042,0.025-0.062,0.038c-7.788,4.673-14.135,11.499-18.22,19.656c-0.032,0.063-0.063,0.127-0.095,0.19"/>
		</g>
		<g>
			<defs>
				<rect id="SVGID_3_" x="10.602" y="89.099" width="96.586" height="84.092"/>
			</defs>
			<clipPath id="SVGID_4_">
				<use xlink:href="#SVGID_3_"  overflow="visible"/>
			</clipPath>
			<path clip-path="url(#SVGID_4_)" fill="none" stroke="#000000" stroke-width="0.44" stroke-miterlimit="10" d="M38.236,114.883
				c3.695-10.66,11.055-19.607,20.573-25.335c0.04-0.024,0.079-0.048,0.119-0.072c0.018,0.011,0.035,0.022,0.053,0.032
				c9.522,5.71,16.892,14.637,20.607,25.28"/>
		</g>
		<g>
			<defs>
				<rect id="SVGID_5_" x="10.602" y="89.099" width="96.586" height="84.092"/>
			</defs>
			<clipPath id="SVGID_6_">
				<use xlink:href="#SVGID_5_"  overflow="visible"/>
			</clipPath>
			<path clip-path="url(#SVGID_6_)" fill="none" stroke="#000000" stroke-width="0.44" stroke-miterlimit="10" d="M77.223,135.399
				L77.223,135.399c0-0.001,0-0.002-0.002-0.002c-0.002-0.028-0.006-0.056-0.008-0.083v-0.001c-0.162-1.602-0.245-3.226-0.245-4.872
				c0-5.482,0.921-10.748,2.62-15.653c3.709-10.715,11.117-19.702,20.7-25.431c4.222,7.129,6.645,15.45,6.645,24.335
				c0,2.474-0.188,4.902-0.55,7.274c-2.193,14.373-10.782,26.643-22.771,33.811c-0.454,0.273-0.914,0.537-1.378,0.794
				c-5.133,2.841-10.843,4.769-16.911,5.554c-0.318,0.043-0.64,0.082-0.959,0.117c-1.73,0.189-3.486,0.287-5.267,0.287h-0.201
				h-0.202c-1.78,0-3.537-0.098-5.267-0.287c-0.316-0.035-0.632-0.072-0.947-0.113c-21.094-2.734-37.876-19.213-41.072-40.162
				c-0.362-2.372-0.55-4.801-0.55-7.274c0-8.885,2.423-17.206,6.644-24.335c9.611,5.746,17.037,14.77,20.734,25.526v0.001
				c1.676,4.877,2.586,10.111,2.586,15.557c0,1.646-0.083,3.27-0.245,4.872v0.001"/>
		</g>
		<g>
			<defs>
				<rect id="SVGID_7_" x="10.602" y="89.099" width="96.586" height="84.092"/>
			</defs>
			<clipPath id="SVGID_8_">
				<use xlink:href="#SVGID_7_"  overflow="visible"/>
			</clipPath>
			<path clip-path="url(#SVGID_8_)" fill="none" stroke="#000000" stroke-width="0.352" stroke-miterlimit="10" d="M11.407,120.965
				c11.411,1.25,21.615,6.512,29.17,14.347v0.001c0.023,0.022,0.043,0.044,0.066,0.067c6.669,6.944,12.783,19.577,12.783,37.583
				h10.937c0-33.034,20.481-49.639,42.02-51.999"/>
		</g>
	</g>
	<polyline fill="none" stroke="#000000" stroke-width="0.352" stroke-miterlimit="10" points="58.887,172.964 58.896,161.667 
		58.896,161.527 	"/>
	<g>
		<path d="M134.984,131.575v1.528h-6.561v17.283h-1.791v-17.283h-6.534v-1.528H134.984z"/>
		<path d="M142.494,131.575l7.377,18.812h-1.925l-2.292-5.849h-8.562l-2.266,5.849h-1.897l7.562-18.812H142.494z M145.048,143.009
			l-3.635-9.642l-3.768,9.642H145.048z"/>
		<path d="M154.164,131.575l6.244,16.493l6.48-16.493h2.636v18.812h-1.792v-16.256h-0.052l-6.429,16.256h-1.688l-6.191-16.256
			h-0.053v16.256h-1.792v-18.812H154.164z"/>
		<path d="M180.722,131.575l7.375,18.812h-1.924l-2.291-5.849h-8.562l-2.267,5.849h-1.896l7.561-18.812H180.722z M183.275,143.009
			l-3.636-9.642l-3.769,9.642H183.275z"/>
		<path d="M198.425,131.575c0.771,0,1.508,0.098,2.199,0.291c0.695,0.193,1.303,0.487,1.819,0.882s0.933,0.905,1.237,1.528
			c0.307,0.624,0.46,1.357,0.46,2.2c0,1.194-0.308,2.231-0.922,3.109c-0.613,0.879-1.525,1.439-2.738,1.686v0.052
			c0.615,0.089,1.124,0.251,1.528,0.488c0.404,0.236,0.73,0.539,0.986,0.908c0.254,0.368,0.439,0.795,0.555,1.276
			c0.113,0.483,0.188,1.008,0.223,1.568c0.02,0.314,0.037,0.703,0.053,1.159c0.02,0.457,0.053,0.918,0.107,1.383
			c0.052,0.466,0.135,0.906,0.248,1.317c0.115,0.412,0.27,0.732,0.462,0.961h-1.976c-0.107-0.176-0.189-0.391-0.252-0.645
			c-0.062-0.256-0.104-0.52-0.131-0.792c-0.025-0.271-0.05-0.538-0.064-0.803c-0.02-0.263-0.036-0.491-0.055-0.685
			c-0.035-0.668-0.093-1.33-0.172-1.989c-0.076-0.659-0.246-1.247-0.5-1.767c-0.254-0.519-0.625-0.936-1.104-1.25
			c-0.484-0.315-1.146-0.458-1.991-0.421h-6.797v8.351h-1.792v-18.811h8.616V131.575z M198.294,140.507
			c0.545,0,1.062-0.083,1.553-0.25c0.492-0.167,0.926-0.409,1.293-0.725c0.367-0.317,0.662-0.698,0.882-1.147
			c0.222-0.447,0.331-0.962,0.331-1.541c0-1.159-0.334-2.072-1.002-2.74c-0.667-0.667-1.688-1.001-3.057-1.001h-6.692v7.403
			L198.294,140.507L198.294,140.507z"/>
		<path d="M204.932,131.575h2.11l6.189,9.538l6.166-9.538h2.132l-7.428,11.065v7.747h-1.792v-7.747L204.932,131.575z"/>
		<path d="M224.457,146.619c0.314,0.649,0.75,1.168,1.305,1.555c0.551,0.387,1.207,0.664,1.96,0.83
			c0.757,0.168,1.565,0.25,2.426,0.25c0.49,0,1.026-0.068,1.604-0.211c0.582-0.141,1.121-0.362,1.621-0.672
			c0.502-0.308,0.918-0.703,1.252-1.186s0.5-1.066,0.5-1.752c0-0.527-0.117-0.982-0.354-1.371c-0.235-0.385-0.546-0.71-0.923-0.975
			c-0.376-0.262-0.793-0.478-1.249-0.646c-0.46-0.166-0.907-0.302-1.345-0.408l-4.19-1.027c-0.542-0.141-1.075-0.317-1.593-0.527
			c-0.518-0.211-0.971-0.492-1.357-0.844c-0.386-0.351-0.697-0.781-0.934-1.291c-0.239-0.508-0.355-1.132-0.355-1.87
			c0-0.457,0.086-0.993,0.264-1.607c0.175-0.616,0.502-1.194,0.986-1.74c0.483-0.543,1.146-1.004,1.99-1.383
			c0.843-0.377,1.921-0.567,3.241-0.567c0.928,0,1.815,0.124,2.657,0.369c0.844,0.247,1.582,0.616,2.216,1.107
			c0.631,0.492,1.137,1.103,1.514,1.83c0.38,0.729,0.565,1.578,0.565,2.542h-1.791c-0.034-0.72-0.196-1.348-0.487-1.884
			c-0.288-0.535-0.667-0.983-1.133-1.343c-0.466-0.36-0.999-0.632-1.604-0.816c-0.607-0.185-1.244-0.277-1.912-0.277
			c-0.615,0-1.207,0.065-1.775,0.197c-0.573,0.132-1.072,0.343-1.504,0.633c-0.43,0.289-0.775,0.672-1.039,1.146
			c-0.266,0.475-0.397,1.063-0.397,1.766c0,0.439,0.076,0.821,0.228,1.146c0.146,0.326,0.354,0.602,0.617,0.83
			c0.265,0.229,0.567,0.414,0.908,0.553c0.342,0.141,0.706,0.256,1.094,0.343l4.584,1.133c0.668,0.175,1.297,0.391,1.885,0.645
			s1.105,0.571,1.553,0.948c0.45,0.377,0.8,0.839,1.057,1.384c0.256,0.544,0.381,1.202,0.381,1.978c0,0.209-0.021,0.49-0.064,0.842
			c-0.046,0.353-0.148,0.725-0.314,1.119c-0.168,0.396-0.404,0.795-0.713,1.198c-0.308,0.404-0.729,0.771-1.267,1.095
			c-0.537,0.323-1.197,0.588-1.988,0.791c-0.79,0.2-1.739,0.303-2.845,0.303s-2.137-0.127-3.082-0.383
			c-0.949-0.254-1.758-0.646-2.426-1.172c-0.668-0.527-1.18-1.203-1.541-2.029c-0.358-0.825-0.512-1.818-0.459-2.978h1.792
			C223.99,145.162,224.141,145.97,224.457,146.619z M227.38,126.358l2.265,2.688l2.317-2.688h1.529l-3.002,3.716h-1.818
			l-3.002-3.716H227.38z"/>
		<path d="M252.75,131.575v1.528h-11.195v6.797h10.484v1.528h-10.484v7.43h11.326v1.528h-13.118v-18.812L252.75,131.575
			L252.75,131.575z"/>
		<path d="M257.175,131.575v10.117l10.936-10.117h2.424l-8.406,7.772l8.802,11.039h-2.319l-7.822-9.8l-3.61,3.345v6.455h-1.789
			v-18.812L257.175,131.575L257.175,131.575z"/>
	</g>
</g>
<g>
	<path d="M121.368,123.739h-0.446v-15.922h0.446v11.039l7.916-6.579h0.646l-5.263,4.371l5.643,7.091h-0.603l-5.374-6.779
		l-2.966,2.453L121.368,123.739L121.368,123.739z"/>
	<path d="M130.555,115.745c0.223-0.721,0.554-1.356,0.992-1.907c0.438-0.55,0.978-0.992,1.617-1.327
		c0.639-0.334,1.382-0.502,2.229-0.502c0.833,0,1.568,0.167,2.208,0.502c0.639,0.334,1.178,0.777,1.616,1.327
		c0.438,0.55,0.77,1.186,0.993,1.907c0.223,0.721,0.334,1.476,0.334,2.264c0,0.788-0.111,1.542-0.334,2.263
		c-0.224,0.721-0.555,1.357-0.993,1.907c-0.438,0.55-0.978,0.989-1.616,1.316c-0.64,0.327-1.383,0.49-2.23,0.49
		c-0.832,0-1.568-0.164-2.207-0.49c-0.64-0.327-1.179-0.766-1.617-1.316c-0.438-0.55-0.77-1.186-0.992-1.907
		c-0.223-0.721-0.335-1.475-0.335-2.263C130.22,117.221,130.332,116.466,130.555,115.745z M130.967,120.104
		c0.201,0.669,0.502,1.26,0.903,1.773s0.896,0.922,1.483,1.226c0.587,0.305,1.267,0.458,2.04,0.458c0.759,0,1.431-0.152,2.019-0.458
		c0.587-0.304,1.081-0.713,1.482-1.226s0.703-1.104,0.903-1.773c0.201-0.669,0.301-1.368,0.301-2.096c0-0.714-0.1-1.405-0.301-2.074
		c-0.2-0.669-0.502-1.26-0.903-1.772c-0.401-0.513-0.896-0.926-1.482-1.238c-0.588-0.312-1.26-0.468-2.019-0.468
		c-0.773,0-1.453,0.156-2.04,0.468c-0.588,0.312-1.082,0.725-1.483,1.238c-0.401,0.513-0.702,1.104-0.903,1.772
		c-0.2,0.669-0.301,1.36-0.301,2.074C130.666,118.737,130.767,119.436,130.967,120.104z"/>
	<path d="M149.6,114.195c-0.179-0.401-0.433-0.732-0.759-0.992c-0.327-0.26-0.717-0.45-1.172-0.569
		c-0.453-0.119-0.955-0.178-1.504-0.178c-0.804,0-1.436,0.108-1.896,0.323c-0.461,0.216-0.803,0.461-1.025,0.736
		c-0.224,0.275-0.365,0.546-0.424,0.814c-0.06,0.268-0.09,0.454-0.09,0.558c0,0.565,0.115,1,0.346,1.305
		c0.231,0.305,0.539,0.539,0.926,0.702c0.401,0.164,0.836,0.305,1.306,0.424c0.468,0.119,1.015,0.26,1.639,0.424
		c0.446,0.119,0.89,0.242,1.327,0.368s0.832,0.301,1.182,0.524c0.351,0.223,0.633,0.506,0.849,0.848
		c0.216,0.342,0.323,0.788,0.323,1.338c0,0.58-0.123,1.07-0.369,1.472c-0.244,0.401-0.563,0.729-0.959,0.981
		c-0.394,0.253-0.84,0.435-1.338,0.546c-0.498,0.111-0.991,0.167-1.481,0.167c-1.53,0-2.688-0.334-3.468-1.003
		c-0.78-0.669-1.171-1.724-1.171-3.167h0.447c0,1.293,0.359,2.241,1.08,2.843s1.758,0.903,3.111,0.903
		c0.416,0,0.844-0.048,1.281-0.145c0.438-0.097,0.837-0.253,1.193-0.468c0.356-0.215,0.649-0.494,0.881-0.836
		c0.229-0.342,0.346-0.758,0.346-1.249c0-0.505-0.115-0.915-0.346-1.227s-0.527-0.569-0.893-0.77
		c-0.365-0.201-0.783-0.36-1.26-0.479c-0.477-0.119-0.959-0.238-1.449-0.357c-0.551-0.134-1.034-0.26-1.449-0.379
		c-0.416-0.119-0.789-0.252-1.115-0.401c-0.477-0.208-0.824-0.498-1.049-0.87c-0.223-0.372-0.334-0.87-0.334-1.494
		c0-0.312,0.066-0.639,0.2-0.981c0.134-0.342,0.356-0.654,0.669-0.937c0.312-0.282,0.715-0.513,1.204-0.691
		c0.491-0.178,1.093-0.268,1.808-0.268c1.277,0,2.289,0.29,3.033,0.87c0.742,0.58,1.113,1.509,1.113,2.787h-0.445
		C149.867,115.087,149.777,114.596,149.6,114.195z"/>
	<path d="M153.167,112.277v2.833h0.045c0.104-0.446,0.268-0.855,0.49-1.227c0.223-0.372,0.498-0.699,0.825-0.981
		c0.326-0.282,0.688-0.501,1.081-0.658c0.393-0.157,0.814-0.234,1.26-0.234c0.894-0.029,1.641,0.197,2.241,0.68
		c0.603,0.483,1,1.148,1.193,1.996h0.045c0.223-0.803,0.661-1.45,1.315-1.94c0.653-0.49,1.426-0.736,2.318-0.736
		c0.698,0,1.277,0.104,1.739,0.312c0.461,0.208,0.832,0.494,1.114,0.858c0.283,0.364,0.482,0.803,0.603,1.316
		c0.119,0.513,0.179,1.082,0.179,1.706v7.538h-0.445v-7.538c0-0.564-0.049-1.078-0.146-1.539c-0.097-0.46-0.269-0.854-0.513-1.182
		c-0.246-0.327-0.573-0.58-0.981-0.758c-0.409-0.179-0.926-0.268-1.55-0.268c-0.551,0-1.049,0.108-1.494,0.323
		c-0.445,0.216-0.824,0.509-1.138,0.881c-0.313,0.372-0.55,0.799-0.714,1.282c-0.163,0.483-0.245,0.992-0.245,1.527v7.27h-0.445
		v-7.359c0-0.535-0.042-1.041-0.123-1.517c-0.082-0.476-0.233-0.892-0.457-1.249c-0.224-0.357-0.534-0.639-0.937-0.848
		c-0.401-0.208-0.922-0.312-1.562-0.312c-0.563,0-1.078,0.13-1.537,0.39c-0.461,0.26-0.853,0.61-1.172,1.048
		c-0.32,0.438-0.564,0.948-0.736,1.527c-0.17,0.579-0.256,1.189-0.256,1.829v6.489h-0.445v-11.462h0.447V112.277z"/>
	<path d="M170.126,120.25c0.17,0.662,0.435,1.237,0.791,1.728c0.356,0.491,0.817,0.877,1.383,1.16
		c0.564,0.283,1.257,0.424,2.074,0.424c1.203,0,2.203-0.316,2.998-0.948c0.797-0.632,1.291-1.58,1.483-2.843h0.446
		c-0.164,1.338-0.691,2.375-1.584,3.111c-0.893,0.736-1.992,1.104-3.301,1.104c-0.893,0.015-1.653-0.126-2.285-0.423
		c-0.633-0.297-1.148-0.717-1.551-1.26c-0.4-0.542-0.699-1.182-0.892-1.917c-0.192-0.736-0.29-1.528-0.29-2.375
		c0-0.951,0.141-1.799,0.424-2.542c0.282-0.743,0.653-1.371,1.115-1.884c0.46-0.513,0.995-0.903,1.605-1.171
		c0.608-0.268,1.232-0.401,1.873-0.401c0.892,0,1.66,0.171,2.308,0.513c0.646,0.342,1.175,0.795,1.584,1.36
		c0.407,0.565,0.705,1.212,0.892,1.94c0.187,0.729,0.264,1.487,0.234,2.274h-9.589C169.862,118.871,169.955,119.588,170.126,120.25z
		 M178.701,115.655c-0.193-0.631-0.479-1.185-0.859-1.661c-0.379-0.476-0.852-0.851-1.416-1.126
		c-0.564-0.275-1.219-0.413-1.963-0.413c-0.623,0-1.207,0.119-1.75,0.357s-1.019,0.583-1.428,1.037
		c-0.408,0.454-0.738,1-0.992,1.639c-0.252,0.639-0.4,1.36-0.444,2.163h9.144C178.99,116.953,178.894,116.288,178.701,115.655z"/>
	<path d="M182.447,121.509c0,0.431,0.049,0.766,0.145,1.003c0.098,0.238,0.221,0.417,0.369,0.535
		c0.147,0.119,0.312,0.189,0.49,0.212c0.178,0.022,0.356,0.034,0.535,0.034c0.223,0,0.424-0.004,0.602-0.011
		c0.18-0.007,0.306-0.026,0.379-0.056v0.446c-0.133,0.015-0.264,0.03-0.389,0.044c-0.127,0.015-0.361,0.022-0.703,0.022
		c-0.521,0-0.963-0.152-1.326-0.457c-0.365-0.305-0.547-0.866-0.547-1.684v-8.875h-2.097v-0.446h2.097v-3.612h0.445v3.612h2.588
		v0.446h-2.588V121.509z"/>
	<path d="M186.595,110.069v-2.252h0.445v2.252H186.595z M186.595,123.739v-11.462h0.445v11.462H186.595z"/>
	<path d="M198.257,121.565c-0.254,0.513-0.584,0.948-0.992,1.305c-0.409,0.357-0.885,0.632-1.428,0.825
		c-0.543,0.193-1.142,0.29-1.795,0.29c-0.817,0-1.543-0.152-2.174-0.457c-0.633-0.305-1.164-0.717-1.596-1.238
		c-0.432-0.52-0.758-1.126-0.98-1.817c-0.224-0.691-0.334-1.431-0.334-2.219c0-0.833,0.106-1.624,0.322-2.375
		c0.217-0.75,0.543-1.412,0.981-1.984s0.995-1.029,1.672-1.372c0.677-0.342,1.469-0.513,2.375-0.513
		c0.535,0,1.049,0.082,1.539,0.246c0.489,0.164,0.929,0.401,1.315,0.713c0.387,0.312,0.709,0.703,0.971,1.171
		c0.26,0.468,0.427,1.007,0.5,1.617h-0.444c-0.09-0.565-0.253-1.052-0.491-1.46c-0.236-0.409-0.527-0.751-0.869-1.026
		c-0.343-0.275-0.729-0.479-1.16-0.613c-0.431-0.134-0.885-0.201-1.359-0.201c-0.906,0-1.676,0.175-2.309,0.524
		c-0.631,0.35-1.138,0.803-1.517,1.36c-0.379,0.557-0.653,1.182-0.825,1.873c-0.171,0.691-0.256,1.372-0.256,2.041
		c0,0.699,0.1,1.368,0.301,2.007c0.2,0.64,0.494,1.205,0.881,1.695c0.388,0.491,0.869,0.881,1.449,1.171s1.25,0.435,2.008,0.435
		c0.564,0,1.092-0.085,1.584-0.257c0.49-0.17,0.924-0.419,1.304-0.747c0.38-0.327,0.688-0.717,0.926-1.17
		c0.237-0.454,0.379-0.97,0.424-1.55h0.446C198.666,120.476,198.509,121.052,198.257,121.565z"/>
	<path d="M201.089,123.739h-0.445v-15.922h0.445v11.039l7.916-6.579h0.646l-5.263,4.371l5.644,7.091h-0.604l-5.374-6.779
		l-2.966,2.453V123.739L201.089,123.739z"/>
	<path d="M218.662,112.277l-5.285,13.782c-0.147,0.386-0.326,0.688-0.535,0.903c-0.207,0.215-0.438,0.375-0.69,0.479
		s-0.53,0.167-0.836,0.189c-0.305,0.022-0.629,0.034-0.971,0.034v-0.446c0.387,0,0.718-0.011,0.993-0.034
		c0.273-0.022,0.513-0.082,0.713-0.178c0.201-0.097,0.38-0.246,0.535-0.446c0.156-0.201,0.302-0.472,0.436-0.814l0.825-2.118
		l-4.772-11.351h0.469l4.549,10.86l4.104-10.86H218.662L218.662,112.277z M212.998,111.14h-0.334l2.943-3.211h0.646L212.998,111.14z
		"/>
	<path d="M233.023,114.195c-0.179-0.401-0.432-0.732-0.759-0.992c-0.327-0.26-0.718-0.45-1.171-0.569
		c-0.453-0.119-0.955-0.178-1.506-0.178c-0.803,0-1.435,0.108-1.896,0.323c-0.461,0.216-0.803,0.461-1.024,0.736
		c-0.225,0.275-0.365,0.546-0.424,0.814c-0.061,0.268-0.091,0.454-0.091,0.558c0,0.565,0.115,1,0.347,1.305
		c0.23,0.305,0.539,0.539,0.926,0.702c0.4,0.164,0.836,0.305,1.305,0.424c0.468,0.119,1.016,0.26,1.639,0.424
		c0.446,0.119,0.889,0.242,1.327,0.368s0.832,0.301,1.183,0.524c0.35,0.223,0.631,0.506,0.848,0.848
		c0.216,0.342,0.322,0.788,0.322,1.338c0,0.58-0.121,1.07-0.367,1.472c-0.245,0.401-0.564,0.729-0.959,0.981
		c-0.395,0.253-0.84,0.435-1.338,0.546c-0.498,0.111-0.992,0.167-1.482,0.167c-1.531,0-2.688-0.334-3.468-1.003
		s-1.171-1.724-1.171-3.167h0.445c0,1.293,0.36,2.241,1.082,2.843c0.721,0.602,1.758,0.903,3.11,0.903
		c0.416,0,0.845-0.048,1.282-0.145s0.836-0.253,1.191-0.468c0.357-0.215,0.65-0.494,0.881-0.836c0.23-0.342,0.347-0.758,0.347-1.249
		c0-0.505-0.115-0.915-0.347-1.227c-0.229-0.312-0.526-0.569-0.892-0.77c-0.364-0.201-0.784-0.36-1.26-0.479
		c-0.478-0.119-0.959-0.238-1.449-0.357c-0.551-0.134-1.034-0.26-1.45-0.379c-0.416-0.119-0.787-0.252-1.113-0.401
		c-0.478-0.208-0.825-0.498-1.049-0.87s-0.334-0.87-0.334-1.494c0-0.312,0.065-0.639,0.199-0.981
		c0.135-0.342,0.357-0.654,0.67-0.937c0.312-0.282,0.713-0.513,1.203-0.691c0.491-0.178,1.094-0.268,1.807-0.268
		c1.279,0,2.289,0.29,3.033,0.87c0.743,0.58,1.114,1.509,1.114,2.787h-0.444C233.291,115.087,233.201,114.596,233.023,114.195z"/>
	<path d="M236.457,114.317c0.192-0.468,0.473-0.873,0.836-1.215c0.365-0.342,0.812-0.609,1.338-0.803
		c0.527-0.193,1.148-0.29,1.863-0.29c0.504,0,0.983,0.052,1.438,0.156c0.453,0.104,0.852,0.287,1.191,0.546
		c0.342,0.26,0.617,0.599,0.825,1.015c0.208,0.417,0.319,0.937,0.335,1.561v7.292c0,0.223,0.045,0.387,0.135,0.491
		c0.088,0.104,0.207,0.175,0.355,0.212c0.148,0.037,0.309,0.052,0.479,0.044c0.172-0.007,0.332-0.019,0.479-0.033v0.446h-0.669
		c-0.327,0-0.613-0.078-0.857-0.234c-0.246-0.156-0.369-0.449-0.369-0.881v-1.494h-0.045c-0.119,0.372-0.309,0.729-0.567,1.07
		c-0.259,0.341-0.587,0.646-0.981,0.914c-0.394,0.268-0.844,0.479-1.349,0.636c-0.506,0.156-1.056,0.234-1.649,0.234
		c-1.16,0-2.09-0.256-2.787-0.769c-0.699-0.513-1.049-1.282-1.049-2.308c0-0.714,0.114-1.286,0.346-1.717
		c0.229-0.431,0.531-0.769,0.902-1.015c0.371-0.245,0.795-0.416,1.271-0.513c0.476-0.097,0.951-0.16,1.427-0.189
		c0.788-0.045,1.464-0.085,2.028-0.123c0.566-0.037,1.029-0.111,1.395-0.223c0.364-0.112,0.633-0.282,0.803-0.513
		c0.172-0.23,0.258-0.561,0.258-0.992c0-0.342-0.03-0.699-0.09-1.07c-0.06-0.372-0.205-0.714-0.436-1.026s-0.568-0.569-1.016-0.77
		c-0.444-0.201-1.047-0.301-1.805-0.301c-1.205,0-2.142,0.293-2.811,0.881s-1.041,1.416-1.115,2.486h-0.445
		C236.151,115.288,236.264,114.786,236.457,114.317z M243.792,117.005c-0.147,0.208-0.379,0.368-0.689,0.479
		c-0.312,0.112-0.67,0.197-1.07,0.257c-0.402,0.06-0.837,0.097-1.305,0.111c-0.469,0.015-0.926,0.037-1.372,0.067
		c-0.444,0.03-0.881,0.086-1.306,0.167c-0.424,0.081-0.799,0.23-1.125,0.446c-0.327,0.216-0.588,0.513-0.78,0.892
		c-0.192,0.379-0.29,0.874-0.29,1.483c0,0.327,0.057,0.65,0.167,0.97c0.112,0.32,0.302,0.602,0.569,0.847
		c0.267,0.245,0.613,0.446,1.035,0.602c0.424,0.156,0.949,0.234,1.572,0.234c0.743,0,1.405-0.126,1.985-0.379
		c0.579-0.252,1.065-0.583,1.46-0.992s0.691-0.881,0.893-1.416c0.2-0.535,0.301-1.085,0.301-1.65v-2.118H243.792z"/>
	<path d="M247.317,107.817v15.922h-0.446v-15.922H247.317z"/>
	<path d="M249.501,115.745c0.224-0.721,0.555-1.356,0.992-1.907c0.438-0.55,0.979-0.992,1.617-1.327
		c0.639-0.334,1.383-0.502,2.229-0.502c0.834,0,1.568,0.167,2.209,0.502c0.639,0.334,1.178,0.777,1.615,1.327
		c0.438,0.55,0.771,1.186,0.994,1.907c0.223,0.721,0.334,1.476,0.334,2.264c0,0.788-0.111,1.542-0.334,2.263
		c-0.225,0.721-0.556,1.357-0.994,1.907c-0.438,0.55-0.978,0.989-1.615,1.316c-0.641,0.327-1.383,0.49-2.23,0.49
		c-0.832,0-1.568-0.164-2.207-0.49c-0.64-0.327-1.179-0.766-1.617-1.316c-0.438-0.55-0.77-1.186-0.992-1.907
		s-0.334-1.475-0.334-2.263C249.167,117.221,249.279,116.466,249.501,115.745z M249.914,120.104c0.201,0.669,0.502,1.26,0.903,1.773
		s0.896,0.922,1.483,1.226c0.587,0.305,1.267,0.458,2.039,0.458c0.76,0,1.432-0.152,2.02-0.458c0.587-0.304,1.081-0.713,1.482-1.226
		c0.4-0.513,0.703-1.104,0.902-1.773c0.201-0.669,0.301-1.368,0.301-2.096c0-0.714-0.1-1.405-0.301-2.074
		c-0.199-0.669-0.502-1.26-0.902-1.772c-0.401-0.513-0.896-0.926-1.482-1.238c-0.588-0.312-1.26-0.468-2.02-0.468
		c-0.772,0-1.452,0.156-2.039,0.468c-0.588,0.312-1.082,0.725-1.483,1.238c-0.401,0.513-0.702,1.104-0.903,1.772
		c-0.199,0.669-0.301,1.36-0.301,2.074C249.613,118.737,249.714,119.436,249.914,120.104z M253.449,111.14h-0.335l2.943-3.211h0.647
		L253.449,111.14z"/>
	<path d="M261.789,112.277v2.833h0.045c0.104-0.446,0.271-0.855,0.502-1.227c0.23-0.372,0.521-0.699,0.869-0.981
		c0.35-0.282,0.754-0.501,1.215-0.658c0.461-0.157,0.975-0.234,1.539-0.234c0.596,0,1.142,0.089,1.64,0.268
		c0.498,0.179,0.929,0.443,1.294,0.792c0.363,0.349,0.646,0.78,0.847,1.293c0.201,0.513,0.302,1.104,0.302,1.772v7.604h-0.445
		v-7.538c0-0.669-0.098-1.237-0.29-1.706c-0.193-0.469-0.457-0.855-0.792-1.16c-0.334-0.305-0.721-0.528-1.159-0.669
		s-0.903-0.212-1.394-0.212c-0.686,0-1.287,0.13-1.808,0.39c-0.521,0.26-0.955,0.61-1.305,1.048
		c-0.351,0.438-0.613,0.948-0.791,1.527c-0.179,0.58-0.269,1.189-0.269,1.829v6.489h-0.445v-11.462h0.445V112.277z"/>
</g>
</svg>
