<?xml version="1.0" encoding="utf-8"?>
<!-- Generator: Adobe Illustrator 15.0.0, SVG Export Plug-In . SVG Version: 6.00 Build 0)  -->
<!DOCTYPE svg PUBLIC "-//W3C//DTD SVG 1.1//EN" "http://www.w3.org/Graphics/SVG/1.1/DTD/svg11.dtd">
<svg version="1.1" id="Vrstva_1" xmlns="http://www.w3.org/2000/svg" xmlns:xlink="http://www.w3.org/1999/xlink" x="0px" y="0px"
	 width="283.46px" height="283.46px" viewBox="0 0 283.46 283.46" enable-background="new 0 0 283.46 283.46" xml:space="preserve">
<g>
	<polyline fill="none" stroke="#000000" stroke-width="0.44" stroke-miterlimit="10" points="141.926,115.92 141.896,161.455 
		141.896,161.527 141.896,161.668 	"/>
	<g>
		<defs>
			<rect id="SVGID_1_" x="93.602" y="89.099" width="96.586" height="84.092"/>
		</defs>
		<clipPath id="SVGID_2_">
			<use xlink:href="#SVGID_1_"  overflow="visible"/>
		</clipPath>
		<path clip-path="url(#SVGID_2_)" fill="none" stroke="#000000" stroke-width="0.44" stroke-miterlimit="10" d="M160.223,135.399
			L160.223,135.399c-0.012-0.022-0.022-0.042-0.033-0.062c-4.096-8.161-10.457-14.986-18.261-19.652c0,0,0,0.001-0.002,0.001
			c-0.021,0.012-0.042,0.025-0.062,0.038c-7.788,4.673-14.135,11.499-18.22,19.656c-0.032,0.063-0.063,0.127-0.095,0.19"/>
		<path clip-path="url(#SVGID_2_)" fill="none" stroke="#000000" stroke-width="0.44" stroke-miterlimit="10" d="M121.236,114.883
			c3.695-10.66,11.055-19.607,20.573-25.335c0.04-0.024,0.079-0.048,0.119-0.072c0.018,0.011,0.035,0.022,0.053,0.032
			c9.522,5.71,16.892,14.637,20.607,25.28"/>
		<path clip-path="url(#SVGID_2_)" fill="none" stroke="#000000" stroke-width="0.44" stroke-miterlimit="10" d="M160.223,135.399
			L160.223,135.399c0-0.001,0-0.002-0.002-0.002c-0.002-0.028-0.006-0.056-0.008-0.083v-0.001c-0.162-1.602-0.245-3.226-0.245-4.872
			c0-5.482,0.921-10.748,2.62-15.653c3.709-10.715,11.117-19.702,20.7-25.431c4.222,7.129,6.645,15.45,6.645,24.335
			c0,2.474-0.188,4.902-0.55,7.274c-2.193,14.373-10.782,26.643-22.771,33.811c-0.454,0.273-0.914,0.537-1.378,0.794
			c-5.133,2.841-10.843,4.768-16.911,5.554c-0.318,0.043-0.64,0.082-0.959,0.117c-1.73,0.189-3.486,0.287-5.267,0.287h-0.201h-0.202
			c-1.78,0-3.537-0.098-5.267-0.287c-0.316-0.035-0.632-0.072-0.947-0.113c-21.094-2.735-37.876-19.214-41.072-40.162
			c-0.362-2.372-0.55-4.801-0.55-7.274c0-8.885,2.423-17.206,6.644-24.335c9.611,5.746,17.037,14.77,20.734,25.526v0.001
			c1.676,4.877,2.586,10.111,2.586,15.557c0,1.646-0.083,3.27-0.245,4.872v0.001"/>
		<path clip-path="url(#SVGID_2_)" fill="none" stroke="#000000" stroke-width="0.352" stroke-miterlimit="10" d="M94.407,120.965
			c11.411,1.25,21.615,6.512,29.17,14.347v0.001c0.023,0.022,0.043,0.044,0.066,0.067c6.669,6.943,12.783,19.577,12.783,37.583
			h10.937c0-33.035,20.481-49.64,42.02-51.999"/>
	</g>
	<polyline fill="none" stroke="#000000" stroke-width="0.352" stroke-miterlimit="10" points="141.887,172.965 141.896,161.668 
		141.896,161.527 	"/>
	<g>
		<path d="M103.399,191.881v0.975h-4.183v11.021h-1.142v-11.021h-4.167v-0.975H103.399z"/>
		<path d="M108.188,191.881l4.704,11.995h-1.227l-1.461-3.729h-5.459l-1.445,3.729h-1.209l4.821-11.995H108.188z M109.817,199.172
			l-2.318-6.148l-2.402,6.148H109.817z"/>
		<path d="M115.629,191.881l3.981,10.517l4.132-10.517h1.68v11.995h-1.143v-10.365h-0.033l-4.099,10.365h-1.075l-3.948-10.365
			h-0.034v10.365h-1.143v-11.995H115.629z"/>
		<path d="M132.563,191.881l4.704,11.995h-1.227l-1.461-3.729h-5.459l-1.445,3.729h-1.209l4.821-11.995H132.563z M134.192,199.172
			l-2.318-6.148l-2.402,6.148H134.192z"/>
		<path d="M143.852,191.881c0.493,0,0.961,0.062,1.402,0.186c0.443,0.123,0.83,0.311,1.16,0.562s0.594,0.577,0.789,0.975
			s0.294,0.865,0.294,1.402c0,0.762-0.196,1.423-0.588,1.982c-0.392,0.561-0.974,0.918-1.747,1.075v0.033
			c0.393,0.057,0.717,0.16,0.975,0.312c0.258,0.15,0.467,0.344,0.63,0.579c0.162,0.235,0.28,0.507,0.353,0.814
			c0.072,0.309,0.121,0.642,0.143,1c0.012,0.201,0.023,0.448,0.034,0.739s0.033,0.585,0.067,0.882
			c0.033,0.297,0.086,0.577,0.159,0.84c0.073,0.264,0.171,0.468,0.294,0.613h-1.26c-0.067-0.112-0.121-0.249-0.16-0.411
			c-0.039-0.163-0.066-0.331-0.084-0.505c-0.016-0.173-0.031-0.344-0.041-0.512c-0.012-0.168-0.023-0.313-0.034-0.437
			c-0.022-0.426-0.059-0.849-0.109-1.269c-0.05-0.42-0.157-0.795-0.319-1.126c-0.162-0.33-0.397-0.597-0.705-0.798
			c-0.309-0.201-0.73-0.291-1.269-0.269h-4.334v5.325h-1.143v-11.995H143.852z M143.768,197.576c0.348,0,0.678-0.053,0.991-0.159
			s0.589-0.261,0.823-0.462c0.235-0.202,0.423-0.445,0.562-0.731c0.141-0.285,0.211-0.613,0.211-0.982
			c0-0.739-0.213-1.321-0.639-1.747s-1.075-0.639-1.949-0.639h-4.267v4.721H143.768z"/>
		<path d="M148.001,191.881h1.345l3.947,6.082l3.932-6.082h1.36l-4.737,7.056v4.939h-1.143v-4.939L148.001,191.881z"/>
		<path d="M160.449,201.474c0.201,0.414,0.479,0.745,0.832,0.991c0.353,0.246,0.77,0.423,1.251,0.529s0.997,0.159,1.546,0.159
			c0.312,0,0.654-0.044,1.024-0.134s0.714-0.232,1.033-0.429s0.585-0.448,0.798-0.756s0.319-0.681,0.319-1.117
			c0-0.336-0.075-0.627-0.227-0.874c-0.151-0.246-0.348-0.453-0.589-0.621c-0.24-0.168-0.506-0.305-0.797-0.412
			c-0.292-0.105-0.577-0.192-0.857-0.26l-2.671-0.655c-0.347-0.09-0.687-0.202-1.017-0.336c-0.33-0.135-0.619-0.313-0.865-0.538
			c-0.246-0.224-0.445-0.498-0.596-0.823c-0.151-0.324-0.227-0.722-0.227-1.192c0-0.291,0.055-0.633,0.168-1.024
			c0.111-0.393,0.321-0.762,0.629-1.109c0.309-0.347,0.731-0.641,1.27-0.882c0.537-0.24,1.226-0.361,2.066-0.361
			c0.593,0,1.158,0.079,1.695,0.235c0.538,0.157,1.009,0.393,1.412,0.706c0.402,0.313,0.725,0.703,0.966,1.167
			c0.241,0.465,0.36,1.006,0.36,1.621h-1.142c-0.022-0.459-0.126-0.859-0.312-1.201c-0.184-0.341-0.426-0.627-0.722-0.856
			c-0.297-0.229-0.638-0.403-1.024-0.521c-0.387-0.118-0.793-0.177-1.219-0.177c-0.392,0-0.77,0.042-1.133,0.126
			c-0.365,0.084-0.684,0.219-0.958,0.403s-0.495,0.429-0.663,0.73c-0.169,0.303-0.253,0.678-0.253,1.126
			c0,0.28,0.048,0.523,0.144,0.73c0.094,0.208,0.227,0.384,0.395,0.529s0.361,0.264,0.579,0.353c0.219,0.09,0.45,0.163,0.697,0.219
			l2.923,0.723c0.426,0.111,0.826,0.249,1.201,0.411s0.706,0.364,0.991,0.604c0.286,0.241,0.51,0.535,0.673,0.883
			c0.162,0.347,0.243,0.767,0.243,1.26c0,0.134-0.015,0.313-0.042,0.537c-0.028,0.225-0.096,0.462-0.201,0.714
			c-0.107,0.252-0.258,0.507-0.454,0.765s-0.465,0.49-0.807,0.697s-0.765,0.375-1.269,0.504s-1.108,0.193-1.814,0.193
			c-0.705,0-1.36-0.081-1.965-0.244c-0.605-0.162-1.12-0.411-1.546-0.747s-0.753-0.768-0.982-1.294s-0.327-1.159-0.294-1.898h1.143
			C160.152,200.544,160.248,201.06,160.449,201.474z M162.314,188.555l1.444,1.714l1.478-1.714h0.975l-1.914,2.369h-1.16
			l-1.914-2.369H162.314z"/>
		<path d="M178.491,191.881v0.975h-7.14v4.334h6.687v0.975h-6.687v4.737h7.224v0.975h-8.366v-11.995H178.491z"/>
		<path d="M181.313,191.881v6.451l6.972-6.451h1.546l-5.359,4.956l5.611,7.039h-1.479l-4.989-6.249l-2.302,2.133v4.116h-1.142
			v-11.995H181.313z"/>
	</g>
</g>
<g>
	<path d="M94.397,177.552h0.517v6.433l4.311-3.713h0.748l-3.06,2.611l3.278,4.379h-0.708l-2.978-3.984l-1.591,1.346v2.639h-0.517
		V177.552z"/>
	<path d="M100.178,183.767c0-0.499,0.07-0.968,0.211-1.407c0.141-0.44,0.347-0.828,0.619-1.163c0.272-0.336,0.607-0.601,1.006-0.796
		c0.399-0.194,0.857-0.292,1.374-0.292c0.517,0,0.974,0.098,1.374,0.292c0.399,0.195,0.734,0.46,1.006,0.796
		c0.272,0.335,0.478,0.723,0.619,1.163c0.141,0.439,0.211,0.908,0.211,1.407s-0.07,0.97-0.211,1.414s-0.347,0.832-0.619,1.163
		s-0.607,0.594-1.006,0.789c-0.399,0.194-0.857,0.292-1.374,0.292c-0.517,0-0.975-0.098-1.374-0.292
		c-0.399-0.195-0.734-0.458-1.006-0.789s-0.478-0.719-0.619-1.163S100.178,184.266,100.178,183.767z M100.695,183.767
		c0,0.417,0.059,0.818,0.177,1.203c0.118,0.386,0.29,0.728,0.517,1.027c0.227,0.299,0.508,0.537,0.843,0.714
		s0.721,0.266,1.156,0.266c0.435,0,0.82-0.089,1.156-0.266s0.617-0.415,0.843-0.714c0.227-0.3,0.399-0.642,0.517-1.027
		c0.118-0.385,0.177-0.786,0.177-1.203s-0.059-0.818-0.177-1.204c-0.118-0.385-0.29-0.728-0.517-1.026s-0.508-0.537-0.843-0.714
		s-0.721-0.266-1.156-0.266c-0.436,0-0.821,0.089-1.156,0.266s-0.617,0.415-0.843,0.714s-0.399,0.642-0.517,1.026
		C100.753,182.948,100.695,183.35,100.695,183.767z"/>
	<path d="M108.052,184.937c0.018,0.326,0.091,0.614,0.218,0.863s0.292,0.462,0.496,0.639c0.204,0.177,0.442,0.312,0.714,0.401
		c0.272,0.091,0.566,0.137,0.884,0.137c0.227,0,0.469-0.021,0.728-0.062s0.499-0.115,0.721-0.225
		c0.222-0.108,0.406-0.261,0.551-0.455c0.145-0.195,0.218-0.442,0.218-0.741c0-0.391-0.118-0.685-0.354-0.885
		c-0.236-0.199-0.533-0.354-0.891-0.462c-0.358-0.109-0.744-0.197-1.156-0.266c-0.413-0.067-0.798-0.17-1.156-0.306
		c-0.358-0.136-0.655-0.328-0.891-0.578c-0.236-0.249-0.354-0.614-0.354-1.095c0-0.345,0.077-0.633,0.231-0.863
		c0.154-0.231,0.351-0.415,0.591-0.551c0.24-0.137,0.51-0.233,0.809-0.293c0.299-0.059,0.599-0.088,0.898-0.088
		c0.362,0,0.702,0.04,1.02,0.122c0.317,0.082,0.591,0.213,0.823,0.395c0.231,0.182,0.412,0.412,0.544,0.693
		c0.131,0.281,0.197,0.621,0.197,1.021h-0.517c0-0.317-0.052-0.59-0.156-0.816c-0.104-0.227-0.25-0.41-0.435-0.551
		c-0.186-0.141-0.406-0.245-0.66-0.312c-0.254-0.068-0.526-0.103-0.816-0.103c-0.236,0-0.474,0.023-0.714,0.068
		s-0.456,0.122-0.646,0.231c-0.19,0.108-0.347,0.249-0.469,0.421c-0.122,0.173-0.184,0.381-0.184,0.626
		c0,0.281,0.068,0.508,0.204,0.68c0.136,0.173,0.315,0.311,0.537,0.415s0.472,0.188,0.748,0.252c0.277,0.063,0.556,0.127,0.836,0.19
		c0.345,0.063,0.668,0.138,0.973,0.224c0.304,0.087,0.566,0.204,0.789,0.354c0.222,0.149,0.396,0.342,0.524,0.577
		c0.126,0.236,0.19,0.535,0.19,0.898c0,0.381-0.086,0.693-0.258,0.938c-0.172,0.245-0.39,0.442-0.653,0.592
		c-0.263,0.149-0.555,0.254-0.877,0.313c-0.322,0.059-0.637,0.088-0.945,0.088c-0.399,0-0.769-0.052-1.108-0.156
		s-0.637-0.263-0.891-0.476c-0.254-0.213-0.454-0.474-0.599-0.782s-0.222-0.667-0.231-1.074H108.052z"/>
	<path d="M114.362,180.271h0.517v1.428h0.027c0.054-0.218,0.149-0.424,0.286-0.619c0.136-0.194,0.301-0.364,0.496-0.51
		c0.195-0.145,0.413-0.258,0.653-0.34s0.492-0.122,0.755-0.122c0.335,0,0.625,0.043,0.871,0.129c0.245,0.086,0.453,0.199,0.625,0.34
		c0.172,0.141,0.308,0.3,0.408,0.477c0.1,0.177,0.168,0.355,0.204,0.537h0.027c0.208-0.49,0.487-0.859,0.836-1.108
		c0.349-0.25,0.809-0.374,1.38-0.374c0.317,0,0.61,0.047,0.877,0.143c0.268,0.095,0.499,0.24,0.694,0.436
		c0.195,0.194,0.347,0.441,0.456,0.741c0.109,0.299,0.163,0.652,0.163,1.061v4.773h-0.517v-4.787c0-0.444-0.068-0.793-0.204-1.047
		s-0.297-0.447-0.483-0.578c-0.186-0.132-0.372-0.213-0.558-0.245c-0.186-0.031-0.329-0.048-0.428-0.048
		c-0.317,0-0.61,0.055-0.877,0.163c-0.268,0.109-0.499,0.272-0.693,0.49c-0.195,0.218-0.347,0.487-0.456,0.809
		c-0.109,0.322-0.163,0.691-0.163,1.108v4.135h-0.517v-4.787c0-0.436-0.066-0.782-0.197-1.04c-0.131-0.259-0.286-0.451-0.462-0.578
		s-0.358-0.209-0.544-0.245s-0.333-0.055-0.442-0.055c-0.245,0-0.499,0.05-0.762,0.149c-0.263,0.101-0.503,0.255-0.721,0.463
		c-0.218,0.209-0.395,0.476-0.53,0.803c-0.136,0.326-0.204,0.712-0.204,1.155v4.135h-0.517V180.271z"/>
	<path d="M125.365,183.835v0.081c0,0.408,0.054,0.798,0.164,1.17c0.109,0.372,0.27,0.698,0.484,0.979
		c0.214,0.281,0.482,0.504,0.805,0.667c0.322,0.163,0.698,0.245,1.125,0.245c0.7,0,1.254-0.184,1.664-0.551s0.691-0.878,0.846-1.53
		h0.517c-0.154,0.815-0.487,1.441-1,1.877c-0.512,0.435-1.19,0.652-2.033,0.652c-0.517,0-0.968-0.093-1.353-0.278
		c-0.386-0.187-0.708-0.44-0.966-0.762c-0.258-0.322-0.451-0.703-0.578-1.143s-0.19-0.913-0.19-1.421
		c0-0.49,0.066-0.959,0.197-1.408c0.131-0.448,0.329-0.843,0.592-1.183c0.263-0.341,0.591-0.612,0.986-0.816
		s0.859-0.306,1.394-0.306c0.49,0,0.922,0.091,1.299,0.271c0.376,0.182,0.691,0.429,0.945,0.741
		c0.253,0.313,0.446,0.676,0.578,1.088c0.131,0.413,0.197,0.855,0.197,1.326c0,0.046-0.002,0.098-0.007,0.156
		c-0.004,0.06-0.007,0.107-0.007,0.144H125.365z M130.505,183.386c-0.018-0.381-0.082-0.741-0.191-1.081
		c-0.109-0.34-0.271-0.64-0.484-0.897c-0.214-0.259-0.473-0.465-0.777-0.619s-0.652-0.231-1.043-0.231
		c-0.418,0-0.787,0.08-1.105,0.238c-0.318,0.159-0.586,0.367-0.804,0.626c-0.218,0.258-0.387,0.56-0.505,0.904
		c-0.118,0.345-0.191,0.698-0.218,1.061H130.505z"/>
	<path d="M134.803,180.72h-1.523v4.883c0,0.281,0.032,0.503,0.095,0.666s0.161,0.288,0.292,0.374
		c0.131,0.087,0.29,0.139,0.476,0.157c0.186,0.018,0.401,0.022,0.646,0.013v0.449c-0.263,0.018-0.519,0.016-0.769-0.007
		s-0.469-0.091-0.659-0.204c-0.19-0.113-0.343-0.283-0.456-0.51s-0.161-0.539-0.143-0.938v-4.883h-1.292v-0.448h1.292v-2.176h0.517
		v2.176h1.523V180.72z"/>
	<path d="M135.877,178.952v-1.4h0.517v1.4H135.877z M135.877,187.262v-6.99h0.517v6.99H135.877z"/>
	<path d="M143.303,182.434c-0.027-0.308-0.107-0.58-0.238-0.815c-0.131-0.236-0.301-0.431-0.51-0.585s-0.451-0.272-0.728-0.354
		c-0.277-0.082-0.574-0.123-0.891-0.123c-0.435,0-0.82,0.089-1.156,0.266s-0.617,0.412-0.843,0.707s-0.399,0.63-0.517,1.007
		c-0.118,0.376-0.177,0.764-0.177,1.162c0,0.472,0.054,0.907,0.163,1.306c0.109,0.399,0.276,0.746,0.503,1.041
		c0.227,0.294,0.508,0.523,0.843,0.687s0.73,0.245,1.183,0.245c0.327,0,0.628-0.055,0.905-0.164
		c0.276-0.108,0.521-0.258,0.734-0.448c0.213-0.19,0.387-0.419,0.523-0.687c0.136-0.268,0.226-0.561,0.272-0.878h0.516
		c-0.053,0.417-0.168,0.789-0.34,1.115c-0.172,0.327-0.389,0.601-0.652,0.823c-0.263,0.222-0.562,0.393-0.897,0.51
		c-0.335,0.118-0.689,0.177-1.061,0.177c-0.571,0-1.059-0.102-1.462-0.306s-0.734-0.479-0.993-0.823s-0.449-0.741-0.571-1.189
		c-0.123-0.449-0.184-0.918-0.184-1.408c0-0.489,0.07-0.952,0.211-1.387c0.141-0.436,0.347-0.816,0.619-1.143
		s0.607-0.585,1.006-0.775s0.857-0.285,1.374-0.285c0.381,0,0.737,0.047,1.068,0.143c0.331,0.095,0.625,0.238,0.884,0.429
		c0.259,0.19,0.47,0.433,0.632,0.728c0.164,0.294,0.264,0.637,0.301,1.026H143.303z"/>
	<path d="M145.125,177.552h0.517v6.433l4.312-3.713h0.748l-3.061,2.611l3.277,4.379h-0.707l-2.979-3.984l-1.591,1.346v2.639h-0.517
		V177.552z"/>
	<path d="M150.551,180.271h0.612l2.598,6.378l2.394-6.378h0.585l-2.992,7.738c-0.145,0.345-0.278,0.642-0.401,0.891
		c-0.122,0.249-0.261,0.433-0.414,0.551c-0.182,0.146-0.397,0.233-0.646,0.266c-0.249,0.031-0.578,0.047-0.986,0.047v-0.448
		c0.372,0,0.662-0.029,0.871-0.089c0.208-0.059,0.403-0.179,0.585-0.36c0.1-0.1,0.203-0.283,0.312-0.551
		c0.108-0.268,0.245-0.632,0.408-1.095L150.551,180.271z M154.89,177.334h0.693l-1.822,1.903h-0.503L154.89,177.334z"/>
	<path d="M161.459,184.937c0.018,0.326,0.09,0.614,0.217,0.863s0.293,0.462,0.497,0.639s0.441,0.312,0.714,0.401
		c0.271,0.091,0.566,0.137,0.884,0.137c0.227,0,0.47-0.021,0.728-0.062c0.259-0.041,0.499-0.115,0.721-0.225
		c0.223-0.108,0.406-0.261,0.551-0.455c0.146-0.195,0.218-0.442,0.218-0.741c0-0.391-0.118-0.685-0.354-0.885
		c-0.236-0.199-0.533-0.354-0.891-0.462c-0.358-0.109-0.744-0.197-1.156-0.266c-0.413-0.067-0.798-0.17-1.156-0.306
		s-0.655-0.328-0.891-0.578c-0.235-0.249-0.354-0.614-0.354-1.095c0-0.345,0.077-0.633,0.231-0.863
		c0.154-0.231,0.351-0.415,0.592-0.551c0.239-0.137,0.51-0.233,0.809-0.293c0.3-0.059,0.599-0.088,0.897-0.088
		c0.363,0,0.703,0.04,1.021,0.122s0.592,0.213,0.822,0.395c0.231,0.182,0.413,0.412,0.544,0.693
		c0.132,0.281,0.197,0.621,0.197,1.021h-0.517c0-0.317-0.052-0.59-0.156-0.816s-0.249-0.41-0.436-0.551
		c-0.186-0.141-0.405-0.245-0.659-0.312c-0.254-0.068-0.526-0.103-0.816-0.103c-0.235,0-0.474,0.023-0.714,0.068
		s-0.455,0.122-0.646,0.231c-0.19,0.108-0.347,0.249-0.47,0.421c-0.122,0.173-0.184,0.381-0.184,0.626
		c0,0.281,0.068,0.508,0.204,0.68c0.136,0.173,0.315,0.311,0.537,0.415c0.223,0.104,0.472,0.188,0.748,0.252s0.556,0.127,0.837,0.19
		c0.344,0.063,0.668,0.138,0.972,0.224c0.304,0.087,0.567,0.204,0.789,0.354c0.223,0.149,0.396,0.342,0.523,0.577
		c0.127,0.236,0.19,0.535,0.19,0.898c0,0.381-0.086,0.693-0.258,0.938c-0.173,0.245-0.391,0.442-0.653,0.592
		s-0.556,0.254-0.877,0.313c-0.322,0.059-0.637,0.088-0.945,0.088c-0.399,0-0.769-0.052-1.108-0.156s-0.637-0.263-0.891-0.476
		s-0.453-0.474-0.599-0.782s-0.223-0.667-0.231-1.074H161.459z"/>
	<path d="M172.393,185.875h-0.027c-0.082,0.208-0.199,0.405-0.354,0.591c-0.154,0.187-0.343,0.352-0.564,0.497
		c-0.223,0.145-0.474,0.258-0.755,0.34c-0.281,0.081-0.59,0.122-0.925,0.122c-0.743,0-1.319-0.161-1.728-0.482
		c-0.407-0.322-0.611-0.818-0.611-1.489c0-0.408,0.081-0.741,0.244-1c0.163-0.258,0.37-0.462,0.619-0.611
		c0.249-0.15,0.525-0.257,0.829-0.32s0.597-0.108,0.878-0.136l0.802-0.068c0.372-0.027,0.664-0.069,0.878-0.129
		c0.213-0.059,0.374-0.141,0.482-0.245c0.108-0.104,0.177-0.237,0.204-0.4c0.027-0.164,0.041-0.367,0.041-0.612
		c0-0.19-0.037-0.367-0.109-0.53s-0.186-0.309-0.34-0.436s-0.354-0.227-0.599-0.299c-0.244-0.073-0.544-0.109-0.897-0.109
		c-0.625,0-1.131,0.154-1.517,0.463c-0.385,0.309-0.596,0.775-0.632,1.4h-0.517c0.036-0.771,0.283-1.349,0.741-1.733
		c0.457-0.386,1.108-0.578,1.951-0.578c0.844,0,1.457,0.165,1.843,0.496s0.578,0.764,0.578,1.299v4.066
		c0,0.1,0.002,0.199,0.007,0.299c0.005,0.101,0.021,0.19,0.048,0.272c0.027,0.081,0.072,0.147,0.136,0.197s0.154,0.074,0.271,0.074
		c0.091,0,0.218-0.013,0.381-0.04v0.435c-0.136,0.037-0.276,0.055-0.421,0.055c-0.209,0-0.374-0.027-0.497-0.082
		c-0.122-0.054-0.215-0.126-0.278-0.217s-0.106-0.197-0.129-0.32c-0.023-0.122-0.034-0.256-0.034-0.4V185.875z M172.393,183.29
		c-0.127,0.154-0.319,0.259-0.578,0.313s-0.547,0.095-0.863,0.122l-0.871,0.082c-0.254,0.027-0.508,0.065-0.762,0.115
		s-0.482,0.134-0.687,0.252c-0.204,0.117-0.369,0.278-0.496,0.482s-0.19,0.47-0.19,0.796c0,0.517,0.163,0.899,0.489,1.149
		c0.326,0.249,0.775,0.374,1.347,0.374c0.589,0,1.056-0.106,1.4-0.32c0.345-0.213,0.607-0.457,0.789-0.734
		c0.182-0.276,0.297-0.544,0.347-0.802c0.05-0.259,0.075-0.434,0.075-0.524V183.29z"/>
	<path d="M175.193,177.552v9.71h-0.517v-9.71H175.193z"/>
	<path d="M176.514,183.767c0-0.499,0.069-0.968,0.211-1.407c0.14-0.44,0.347-0.828,0.618-1.163c0.272-0.336,0.607-0.601,1.007-0.796
		c0.398-0.194,0.856-0.292,1.373-0.292s0.975,0.098,1.374,0.292c0.398,0.195,0.734,0.46,1.006,0.796
		c0.272,0.335,0.479,0.723,0.619,1.163c0.141,0.439,0.211,0.908,0.211,1.407s-0.07,0.97-0.211,1.414s-0.347,0.832-0.619,1.163
		c-0.271,0.331-0.607,0.594-1.006,0.789c-0.399,0.194-0.857,0.292-1.374,0.292s-0.975-0.098-1.373-0.292
		c-0.399-0.195-0.734-0.458-1.007-0.789c-0.271-0.331-0.479-0.719-0.618-1.163C176.583,184.736,176.514,184.266,176.514,183.767z
		 M177.03,183.767c0,0.417,0.059,0.818,0.177,1.203c0.117,0.386,0.29,0.728,0.517,1.027c0.227,0.299,0.508,0.537,0.844,0.714
		c0.335,0.177,0.721,0.266,1.155,0.266c0.436,0,0.82-0.089,1.156-0.266c0.335-0.177,0.616-0.415,0.843-0.714
		c0.227-0.3,0.399-0.642,0.518-1.027c0.117-0.385,0.177-0.786,0.177-1.203s-0.06-0.818-0.177-1.204
		c-0.118-0.385-0.291-0.728-0.518-1.026s-0.508-0.537-0.843-0.714c-0.336-0.177-0.721-0.266-1.156-0.266
		c-0.435,0-0.82,0.089-1.155,0.266c-0.336,0.177-0.617,0.415-0.844,0.714s-0.399,0.642-0.517,1.026
		C177.089,182.948,177.03,183.35,177.03,183.767z M180.797,177.334h0.694l-1.822,1.903h-0.504L180.797,177.334z"/>
	<path d="M184.143,180.271h0.517v1.496h0.027c0.091-0.263,0.22-0.497,0.388-0.7c0.168-0.204,0.362-0.379,0.585-0.524
		c0.222-0.145,0.464-0.253,0.728-0.326c0.263-0.072,0.53-0.108,0.802-0.108c0.408,0,0.755,0.05,1.041,0.149
		c0.285,0.1,0.519,0.231,0.7,0.395s0.324,0.347,0.429,0.551c0.104,0.204,0.179,0.41,0.224,0.618
		c0.046,0.209,0.073,0.411,0.082,0.605c0.009,0.195,0.014,0.365,0.014,0.51v4.325h-0.517v-4.42c0-0.172-0.014-0.39-0.041-0.653
		c-0.027-0.263-0.106-0.514-0.238-0.754c-0.131-0.24-0.331-0.447-0.599-0.619c-0.267-0.172-0.637-0.259-1.108-0.259
		c-0.398,0-0.752,0.073-1.061,0.218c-0.309,0.146-0.571,0.347-0.789,0.605c-0.217,0.258-0.383,0.566-0.496,0.925
		s-0.17,0.75-0.17,1.176v3.781h-0.517V180.271z"/>
</g>
</svg>
